Nobel-Regular.ufo
<glyph name="exclam" format="1">
  <advance width="213"/>
  <unicode hex="0021"/>
  <outline>
    <contour>
      <point x="156" y="435" type="line"/>
      <point x="136" y="156" type="line"/>
      <point x="71" y="156" type="line"/>
      <point x="51" y="435" type="line"/>
      <point x="51" y="730" type="line"/>
      <point x="156" y="730" type="line"/>
    </contour>
    <contour>
      <point x="156" y="0" type="line"/>
      <point x="51" y="0" type="line"/>
      <point x="51" y="110" type="line"/>
      <point x="156" y="110" type="line"/>
    </contour>
  </outline>
</glyph>
<glyph name="quotedbl" format="1">
  <advance width="341"/>
  <unicode hex="0022"/>
  <outline>
    <contour>
      <point x="291" y="623" type="line"/>
      <point x="271" y="513" type="line"/>
      <point x="216" y="513" type="line"/>
      <point x="196" y="623" type="line"/>
      <point x="196" y="730" type="line"/>
      <point x="291" y="730" type="line"/>
    </contour>
    <contour>
      <point x="145" y="623" type="line"/>
      <point x="125" y="513" type="line"/>
      <point x="70" y="513" type="line"/>
      <point x="50" y="623" type="line"/>
      <point x="50" y="730" type="line"/>
      <point x="145" y="730" type="line"/>
    </contour>
  </outline>
</glyph>
<glyph name="numbersign" format="1">
  <advance width="616"/>
  <unicode hex="0023"/>
  <outline>
    <contour>
      <point x="571" y="207" type="line"/>
      <point x="446" y="207" type="line"/>
      <point x="428" y="0" type="line"/>
      <point x="338" y="0" type="line"/>
      <point x="356" y="207" type="line"/>
      <point x="232" y="207" type="line"/>
      <point x="214" y="0" type="line"/>
      <point x="124" y="0" type="line"/>
      <point x="142" y="207" type="line"/>
      <point x="45" y="207" type="line"/>
      <point x="45" y="283" type="line"/>
      <point x="149" y="283" type="line"/>
      <point x="164" y="450" type="line"/>
      <point x="45" y="450" type="line"/>
      <point x="45" y="526" type="line"/>
      <point x="170" y="526" type="line"/>
      <point x="188" y="730" type="line"/>
      <point x="278" y="730" type="line"/>
      <point x="260" y="526" type="line"/>
      <point x="384" y="526" type="line"/>
      <point x="402" y="730" type="line"/>
      <point x="492" y="730" type="line"/>
      <point x="474" y="526" type="line"/>
      <point x="571" y="526" type="line"/>
      <point x="571" y="450" type="line"/>
      <point x="467" y="450" type="line"/>
      <point x="453" y="283" type="line"/>
      <point x="571" y="283" type="line"/>
    </contour>
    <contour>
      <point x="378" y="450" type="line"/>
      <point x="253" y="450" type="line"/>
      <point x="239" y="283" type="line"/>
      <point x="363" y="283" type="line"/>
    </contour>
  </outline>
</glyph>
<glyph name="dollar" format="1">
  <advance width="570"/>
  <unicode hex="0024"/>
  <outline>
    <contour>
      <point x="537" y="193" type="curve" smooth="yes"/>
      <point x="537" y="81"/>
      <point x="442" y="12"/>
      <point x="321" y="0" type="curve"/>
      <point x="321" y="-79" type="line"/>
      <point x="248" y="-79" type="line"/>
      <point x="248" y="0" type="line"/>
      <point x="155" y="11"/>
      <point x="65" y="63"/>
      <point x="21" y="115" type="curve"/>
      <point x="85" y="177" type="line"/>
      <point x="116" y="146"/>
      <point x="180" y="104"/>
      <point x="248" y="92" type="curve"/>
      <point x="248" y="358" type="line"/>
      <point x="153" y="399"/>
      <point x="57" y="445"/>
      <point x="57" y="559" type="curve" smooth="yes"/>
      <point x="57" y="668"/>
      <point x="149" y="720"/>
      <point x="248" y="730" type="curve"/>
      <point x="248" y="788" type="line"/>
      <point x="321" y="788" type="line"/>
      <point x="321" y="730" type="line"/>
      <point x="405" y="721"/>
      <point x="474" y="683"/>
      <point x="501" y="655" type="curve"/>
      <point x="448" y="582" type="line"/>
      <point x="407" y="616"/>
      <point x="365" y="634"/>
      <point x="321" y="640" type="curve"/>
      <point x="321" y="641"/>
      <point x="321" y="431"/>
      <point x="321" y="431" type="curve"/>
      <point x="424" y="386"/>
      <point x="537" y="331"/>
    </contour>
    <contour>
      <point x="248" y="463" type="curve"/>
      <point x="248" y="641" type="line"/>
      <point x="201" y="634"/>
      <point x="155" y="613"/>
      <point x="155" y="563" type="curve" smooth="yes"/>
      <point x="155" y="517"/>
      <point x="194" y="489"/>
    </contour>
    <contour>
      <point x="433" y="193" type="curve" smooth="yes"/>
      <point x="433" y="258"/>
      <point x="384" y="295"/>
      <point x="321" y="326" type="curve"/>
      <point x="321" y="326"/>
      <point x="321" y="92"/>
      <point x="321" y="91" type="curve"/>
      <point x="387" y="100"/>
      <point x="433" y="133"/>
    </contour>
  </outline>
</glyph>
<glyph name="percent" format="1">
  <advance width="740"/>
  <unicode hex="0025"/>
  <outline>
    <contour>
      <point x="334" y="556" type="curve" smooth="yes"/>
      <point x="334" y="448"/>
      <point x="279" y="365"/>
      <point x="190" y="365" type="curve" smooth="yes"/>
      <point x="119" y="365"/>
      <point x="50" y="427"/>
      <point x="50" y="553" type="curve" smooth="yes"/>
      <point x="50" y="660"/>
      <point x="105" y="742"/>
      <point x="193" y="742" type="curve" smooth="yes"/>
      <point x="284" y="742"/>
      <point x="334" y="657"/>
    </contour>
    <contour>
      <point x="665" y="730" type="line"/>
      <point x="166" y="0" type="line"/>
      <point x="65" y="0" type="line"/>
      <point x="564" y="730" type="line"/>
    </contour>
    <contour>
      <point x="690" y="179" type="curve" smooth="yes"/>
      <point x="690" y="71"/>
      <point x="635" y="-12"/>
      <point x="546" y="-12" type="curve" smooth="yes"/>
      <point x="475" y="-12"/>
      <point x="406" y="50"/>
      <point x="406" y="176" type="curve" smooth="yes"/>
      <point x="406" y="283"/>
      <point x="461" y="365"/>
      <point x="549" y="365" type="curve" smooth="yes"/>
      <point x="640" y="365"/>
      <point x="690" y="280"/>
    </contour>
    <contour>
      <point x="250" y="553" type="curve" smooth="yes"/>
      <point x="250" y="605"/>
      <point x="233" y="669"/>
      <point x="192" y="669" type="curve" smooth="yes"/>
      <point x="151" y="669"/>
      <point x="133" y="608"/>
      <point x="133" y="553" type="curve" smooth="yes"/>
      <point x="133" y="499"/>
      <point x="149" y="438"/>
      <point x="190" y="438" type="curve" smooth="yes"/>
      <point x="234" y="438"/>
      <point x="250" y="500"/>
    </contour>
    <contour>
      <point x="606" y="176" type="curve" smooth="yes"/>
      <point x="606" y="228"/>
      <point x="589" y="292"/>
      <point x="548" y="292" type="curve" smooth="yes"/>
      <point x="507" y="292"/>
      <point x="489" y="231"/>
      <point x="489" y="176" type="curve" smooth="yes"/>
      <point x="489" y="122"/>
      <point x="505" y="61"/>
      <point x="546" y="61" type="curve" smooth="yes"/>
      <point x="590" y="61"/>
      <point x="606" y="123"/>
    </contour>
  </outline>
</glyph>
<glyph name="ampersand" format="1">
  <advance width="642"/>
  <unicode hex="0026"/>
  <outline>
    <contour>
      <point x="630" y="0" type="line"/>
      <point x="504" y="0" type="line"/>
      <point x="450" y="63" type="line"/>
      <point x="383" y="16"/>
      <point x="319" y="-12"/>
      <point x="236" y="-12" type="curve" smooth="yes"/>
      <point x="124" y="-12"/>
      <point x="28" y="68"/>
      <point x="28" y="174" type="curve" smooth="yes"/>
      <point x="28" y="272"/>
      <point x="99" y="351"/>
      <point x="170" y="395" type="curve"/>
      <point x="132" y="439" type="line" smooth="yes"/>
      <point x="101" y="475"/>
      <point x="74" y="520"/>
      <point x="74" y="573" type="curve" smooth="yes"/>
      <point x="74" y="666"/>
      <point x="156" y="742"/>
      <point x="248" y="742" type="curve" smooth="yes"/>
      <point x="354" y="742"/>
      <point x="424" y="671"/>
      <point x="424" y="574" type="curve" smooth="yes"/>
      <point x="424" y="484"/>
      <point x="352" y="425"/>
      <point x="299" y="383" type="curve"/>
      <point x="466" y="191" type="line"/>
      <point x="489" y="213"/>
      <point x="510" y="236"/>
      <point x="530" y="265" type="curve"/>
      <point x="599" y="204" type="line"/>
      <point x="576" y="173"/>
      <point x="550" y="146"/>
      <point x="523" y="122" type="curve"/>
    </contour>
    <contour>
      <point x="329" y="574" type="curve" smooth="yes"/>
      <point x="329" y="622"/>
      <point x="300" y="659"/>
      <point x="250" y="659" type="curve" smooth="yes"/>
      <point x="209" y="659"/>
      <point x="172" y="619"/>
      <point x="172" y="574" type="curve" smooth="yes"/>
      <point x="172" y="536"/>
      <point x="187" y="511"/>
      <point x="219" y="475" type="curve" smooth="yes"/>
      <point x="244" y="447" type="line"/>
      <point x="266" y="461"/>
      <point x="329" y="511"/>
    </contour>
    <contour>
      <point x="397" y="129" type="curve"/>
      <point x="227" y="329" type="line"/>
      <point x="181" y="298"/>
      <point x="127" y="249"/>
      <point x="127" y="184" type="curve" smooth="yes"/>
      <point x="127" y="122"/>
      <point x="181" y="75"/>
      <point x="243" y="75" type="curve" smooth="yes"/>
      <point x="300" y="75"/>
      <point x="352" y="94"/>
    </contour>
  </outline>
</glyph>
<glyph name="quotesingle" format="1">
  <advance width="195"/>
  <unicode hex="0027"/>
  <outline>
    <contour>
      <point x="145" y="623" type="line"/>
      <point x="125" y="513" type="line"/>
      <point x="70" y="513" type="line"/>
      <point x="50" y="623" type="line"/>
      <point x="50" y="730" type="line"/>
      <point x="145" y="730" type="line"/>
    </contour>
  </outline>
</glyph>
<glyph name="parenleft" format="1">
  <advance width="286"/>
  <unicode hex="0028"/>
  <outline>
    <contour>
      <point x="275" y="-179" type="line"/>
      <point x="155" y="-103"/>
      <point x="29" y="81"/>
      <point x="29" y="293" type="curve" smooth="yes"/>
      <point x="29" y="476"/>
      <point x="141" y="661"/>
      <point x="275" y="749" type="curve"/>
      <point x="275" y="669" type="line"/>
      <point x="173" y="567"/>
      <point x="133" y="449"/>
      <point x="132" y="293" type="curve" smooth="yes"/>
      <point x="131" y="131"/>
      <point x="168" y="7"/>
      <point x="275" y="-98" type="curve"/>
    </contour>
  </outline>
</glyph>
<glyph name="parenright" format="1">
  <advance width="286"/>
  <unicode hex="0029"/>
  <outline>
    <contour>
      <point x="259" y="293" type="curve" smooth="yes"/>
      <point x="259" y="81"/>
      <point x="133" y="-103"/>
      <point x="13" y="-179" type="curve"/>
      <point x="13" y="-98" type="line"/>
      <point x="119" y="7"/>
      <point x="156" y="131"/>
      <point x="155" y="293" type="curve" smooth="yes"/>
      <point x="154" y="449"/>
      <point x="114" y="567"/>
      <point x="13" y="669" type="curve"/>
      <point x="13" y="749" type="line"/>
      <point x="146" y="661"/>
      <point x="259" y="476"/>
    </contour>
  </outline>
</glyph>
<glyph name="asterisk" format="1">
  <advance width="393"/>
  <unicode hex="002A"/>
  <outline>
    <contour>
      <point x="353" y="598" type="line"/>
      <point x="253" y="555" type="line"/>
      <point x="308" y="464" type="line"/>
      <point x="267" y="432" type="line"/>
      <point x="196" y="514" type="line"/>
      <point x="126" y="433" type="line"/>
      <point x="83" y="463" type="line"/>
      <point x="139" y="556" type="line"/>
      <point x="40" y="597" type="line"/>
      <point x="56" y="647" type="line"/>
      <point x="161" y="622" type="line"/>
      <point x="170" y="730" type="line"/>
      <point x="222" y="730" type="line"/>
      <point x="230" y="622" type="line"/>
      <point x="335" y="647" type="line"/>
    </contour>
  </outline>
</glyph>
<glyph name="plus" format="1">
  <advance width="502"/>
  <unicode hex="002B"/>
  <outline>
    <contour>
      <point x="467" y="288" type="line"/>
      <point x="296" y="288" type="line"/>
      <point x="296" y="125" type="line"/>
      <point x="206" y="125" type="line"/>
      <point x="206" y="288" type="line"/>
      <point x="35" y="288" type="line"/>
      <point x="35" y="374" type="line"/>
      <point x="206" y="374" type="line"/>
      <point x="206" y="537" type="line"/>
      <point x="296" y="537" type="line"/>
      <point x="296" y="374" type="line"/>
      <point x="467" y="374" type="line"/>
    </contour>
  </outline>
</glyph>
<glyph name="hyphen" format="1">
  <advance width="302"/>
  <unicode hex="002D"/>
  <unicode hex="2010"/>
  <unicode hex="2011"/>
  <outline>
    <contour>
      <point x="257" y="168" type="line"/>
      <point x="45" y="168" type="line"/>
      <point x="45" y="254" type="line"/>
      <point x="257" y="254" type="line"/>
    </contour>
  </outline>
</glyph>
<glyph name="period" format="1">
  <advance width="195"/>
  <unicode hex="002E"/>
  <outline>
    <contour>
      <point x="150" y="0" type="line"/>
      <point x="45" y="0" type="line"/>
      <point x="45" y="110" type="line"/>
      <point x="150" y="110" type="line"/>
    </contour>
  </outline>
</glyph>
<glyph name="slash" format="1">
  <advance width="386"/>
  <unicode hex="002F"/>
  <outline>
    <contour>
      <point x="372" y="730" type="line"/>
      <point x="109" y="0" type="line"/>
      <point x="14" y="0" type="line"/>
      <point x="277" y="730" type="line"/>
    </contour>
  </outline>
</glyph>
<glyph name="zero" format="1">
  <advance width="608"/>
  <unicode hex="0030"/>
  <outline>
    <contour>
      <point x="568" y="369" type="curve" smooth="yes"/>
      <point x="568" y="153"/>
      <point x="479" y="-12"/>
      <point x="301" y="-12" type="curve" smooth="yes"/>
      <point x="158" y="-12"/>
      <point x="40" y="111"/>
      <point x="40" y="363" type="curve" smooth="yes"/>
      <point x="40" y="577"/>
      <point x="130" y="742"/>
      <point x="306" y="742" type="curve" smooth="yes"/>
      <point x="488" y="742"/>
      <point x="568" y="572"/>
    </contour>
    <contour>
      <point x="462" y="363" type="curve" smooth="yes"/>
      <point x="462" y="493"/>
      <point x="427" y="648"/>
      <point x="304" y="648" type="curve" smooth="yes"/>
      <point x="187" y="648"/>
      <point x="145" y="500"/>
      <point x="145" y="364" type="curve" smooth="yes"/>
      <point x="145" y="230"/>
      <point x="195" y="82"/>
      <point x="301" y="82" type="curve" smooth="yes"/>
      <point x="425" y="82"/>
      <point x="462" y="232"/>
    </contour>
  </outline>
</glyph>
<glyph name="one" format="1">
  <advance width="343"/>
  <unicode hex="0031"/>
  <outline>
    <contour>
      <point x="273" y="0" type="line"/>
      <point x="174" y="0" type="line"/>
      <point x="174" y="575" type="line"/>
      <point x="148" y="551"/>
      <point x="74" y="517"/>
      <point x="25" y="512" type="curve"/>
      <point x="25" y="606" type="line"/>
      <point x="84" y="615"/>
      <point x="169" y="659"/>
      <point x="206" y="730" type="curve"/>
      <point x="273" y="730" type="line"/>
    </contour>
  </outline>
</glyph>
<glyph name="two" format="1">
  <advance width="583"/>
  <unicode hex="0032"/>
  <outline>
    <contour>
      <point x="531" y="0" type="line"/>
      <point x="46" y="0" type="line"/>
      <point x="363" y="401" type="line" smooth="yes"/>
      <point x="405" y="454"/>
      <point x="411" y="490"/>
      <point x="411" y="517" type="curve" smooth="yes"/>
      <point x="411" y="620"/>
      <point x="326" y="647"/>
      <point x="277" y="647" type="curve" smooth="yes"/>
      <point x="180" y="647"/>
      <point x="141" y="581"/>
      <point x="141" y="505" type="curve"/>
      <point x="44" y="505" type="line"/>
      <point x="44" y="661"/>
      <point x="146" y="742"/>
      <point x="277" y="742" type="curve" smooth="yes"/>
      <point x="394" y="742"/>
      <point x="512" y="679"/>
      <point x="512" y="517" type="curve" smooth="yes"/>
      <point x="512" y="466"/>
      <point x="495" y="409"/>
      <point x="449" y="352" type="curve" smooth="yes"/>
      <point x="240" y="95" type="line"/>
      <point x="531" y="95" type="line"/>
    </contour>
  </outline>
</glyph>
<glyph name="three" format="1">
  <advance width="597"/>
  <unicode hex="0033"/>
  <outline>
    <contour>
      <point x="552" y="215" type="curve" smooth="yes"/>
      <point x="552" y="120"/>
      <point x="496" y="-12"/>
      <point x="282" y="-12" type="curve" smooth="yes"/>
      <point x="167" y="-12"/>
      <point x="74" y="22"/>
      <point x="23" y="62" type="curve"/>
      <point x="78" y="140" type="line"/>
      <point x="128" y="104"/>
      <point x="201" y="77"/>
      <point x="281" y="77" type="curve" smooth="yes"/>
      <point x="400" y="77"/>
      <point x="452" y="148"/>
      <point x="452" y="216" type="curve" smooth="yes"/>
      <point x="452" y="316"/>
      <point x="373" y="348"/>
      <point x="298" y="348" type="curve" smooth="yes"/>
      <point x="207" y="348" type="line"/>
      <point x="207" y="436" type="line"/>
      <point x="299" y="436" type="line" smooth="yes"/>
      <point x="370" y="436"/>
      <point x="431" y="478"/>
      <point x="431" y="547" type="curve" smooth="yes"/>
      <point x="431" y="579"/>
      <point x="405" y="651"/>
      <point x="298" y="651" type="curve" smooth="yes"/>
      <point x="213" y="651"/>
      <point x="161" y="598"/>
      <point x="135" y="553" type="curve"/>
      <point x="52" y="597" type="line"/>
      <point x="78" y="655"/>
      <point x="150" y="742"/>
      <point x="299" y="742" type="curve" smooth="yes"/>
      <point x="496" y="742"/>
      <point x="529" y="615"/>
      <point x="529" y="544" type="curve" smooth="yes"/>
      <point x="529" y="476"/>
      <point x="486" y="421"/>
      <point x="438" y="396" type="curve"/>
      <point x="503" y="365"/>
      <point x="552" y="307"/>
    </contour>
  </outline>
</glyph>
<glyph name="four" format="1">
  <advance width="573"/>
  <unicode hex="0034"/>
  <outline>
    <contour>
      <point x="554" y="172" type="line"/>
      <point x="452" y="172" type="line"/>
      <point x="452" y="0" type="line"/>
      <point x="357" y="0" type="line"/>
      <point x="357" y="172" type="line"/>
      <point x="24" y="172" type="line"/>
      <point x="24" y="241" type="line"/>
      <point x="375" y="730" type="line"/>
      <point x="452" y="730" type="line"/>
      <point x="452" y="261" type="line"/>
      <point x="554" y="261" type="line"/>
    </contour>
    <contour>
      <point x="357" y="261" type="line"/>
      <point x="357" y="563" type="line"/>
      <point x="357" y="563"/>
      <point x="349" y="548"/>
      <point x="341" y="537" type="curve" smooth="yes"/>
      <point x="147" y="261" type="line"/>
    </contour>
  </outline>
</glyph>
<glyph name="five" format="1">
  <advance width="583"/>
  <unicode hex="0035"/>
  <outline>
    <contour>
      <point x="540" y="254" type="curve" smooth="yes"/>
      <point x="540" y="89"/>
      <point x="433" y="-12"/>
      <point x="278" y="-12" type="curve" smooth="yes"/>
      <point x="186" y="-12"/>
      <point x="90" y="29"/>
      <point x="44" y="69" type="curve"/>
      <point x="96" y="148" type="line"/>
      <point x="135" y="119"/>
      <point x="205" y="81"/>
      <point x="278" y="81" type="curve" smooth="yes"/>
      <point x="388" y="81"/>
      <point x="437" y="167"/>
      <point x="437" y="249" type="curve" smooth="yes"/>
      <point x="437" y="342"/>
      <point x="383" y="411"/>
      <point x="294" y="411" type="curve" smooth="yes"/>
      <point x="236" y="411"/>
      <point x="186" y="383"/>
      <point x="159" y="330" type="curve"/>
      <point x="83" y="339" type="line"/>
      <point x="114" y="730" type="line"/>
      <point x="496" y="730" type="line"/>
      <point x="496" y="640" type="line"/>
      <point x="200" y="640" type="line"/>
      <point x="186" y="462" type="line"/>
      <point x="212" y="485"/>
      <point x="248" y="501"/>
      <point x="311" y="501" type="curve" smooth="yes"/>
      <point x="455" y="501"/>
      <point x="540" y="392"/>
    </contour>
  </outline>
</glyph>
<glyph name="six" format="1">
  <advance width="550"/>
  <unicode hex="0036"/>
  <outline>
    <contour>
      <point x="518" y="225" type="curve" smooth="yes"/>
      <point x="518" y="96"/>
      <point x="423" y="-12"/>
      <point x="280" y="-12" type="curve" smooth="yes"/>
      <point x="149" y="-12"/>
      <point x="45" y="81"/>
      <point x="45" y="238" type="curve" smooth="yes"/>
      <point x="45" y="377"/>
      <point x="102" y="489"/>
      <point x="147" y="563" type="curve" smooth="yes"/>
      <point x="248" y="730" type="line"/>
      <point x="358" y="730" type="line"/>
      <point x="273" y="593" type="line" smooth="yes"/>
      <point x="261" y="573"/>
      <point x="188" y="462"/>
      <point x="171" y="419" type="curve"/>
      <point x="203" y="452"/>
      <point x="248" y="470"/>
      <point x="290" y="470" type="curve" smooth="yes"/>
      <point x="437" y="470"/>
      <point x="518" y="359"/>
    </contour>
    <contour>
      <point x="419" y="227" type="curve" smooth="yes"/>
      <point x="419" y="322"/>
      <point x="359" y="385"/>
      <point x="284" y="385" type="curve" smooth="yes"/>
      <point x="200" y="385"/>
      <point x="144" y="316"/>
      <point x="144" y="233" type="curve" smooth="yes"/>
      <point x="144" y="135"/>
      <point x="208" y="72"/>
      <point x="283" y="72" type="curve" smooth="yes"/>
      <point x="365" y="72"/>
      <point x="419" y="144"/>
    </contour>
  </outline>
</glyph>
<glyph name="seven" format="1">
  <advance width="529"/>
  <unicode hex="0037"/>
  <outline>
    <contour>
      <point x="516" y="730" type="line"/>
      <point x="190" y="0" type="line"/>
      <point x="79" y="0" type="line"/>
      <point x="370" y="638" type="line"/>
      <point x="59" y="638" type="line"/>
      <point x="59" y="730" type="line"/>
    </contour>
  </outline>
</glyph>
<glyph name="eight" format="1">
  <advance width="616"/>
  <unicode hex="0038"/>
  <outline>
    <contour>
      <point x="571" y="208" type="curve" smooth="yes"/>
      <point x="571" y="71"/>
      <point x="472" y="-12"/>
      <point x="311" y="-12" type="curve" smooth="yes"/>
      <point x="152" y="-12"/>
      <point x="51" y="70"/>
      <point x="51" y="208" type="curve" smooth="yes"/>
      <point x="51" y="312"/>
      <point x="112" y="366"/>
      <point x="163" y="387" type="curve"/>
      <point x="119" y="413"/>
      <point x="74" y="450"/>
      <point x="74" y="535" type="curve" smooth="yes"/>
      <point x="74" y="669"/>
      <point x="183" y="742"/>
      <point x="311" y="742" type="curve" smooth="yes"/>
      <point x="450" y="742"/>
      <point x="547" y="658"/>
      <point x="547" y="535" type="curve" smooth="yes"/>
      <point x="547" y="460"/>
      <point x="503" y="413"/>
      <point x="458" y="387" type="curve"/>
      <point x="510" y="366"/>
      <point x="571" y="309"/>
    </contour>
    <contour>
      <point x="444" y="535" type="curve" smooth="yes"/>
      <point x="444" y="605"/>
      <point x="393" y="654"/>
      <point x="311" y="654" type="curve" smooth="yes"/>
      <point x="241" y="654"/>
      <point x="176" y="609"/>
      <point x="176" y="535" type="curve" smooth="yes"/>
      <point x="176" y="458"/>
      <point x="244" y="420"/>
      <point x="311" y="420" type="curve" smooth="yes"/>
      <point x="386" y="420"/>
      <point x="444" y="462"/>
    </contour>
    <contour>
      <point x="467" y="208" type="curve" smooth="yes"/>
      <point x="467" y="285"/>
      <point x="403" y="330"/>
      <point x="311" y="330" type="curve" smooth="yes"/>
      <point x="213" y="330"/>
      <point x="153" y="289"/>
      <point x="153" y="208" type="curve" smooth="yes"/>
      <point x="153" y="127"/>
      <point x="229" y="79"/>
      <point x="311" y="79" type="curve" smooth="yes"/>
      <point x="397" y="79"/>
      <point x="467" y="121"/>
    </contour>
  </outline>
</glyph>
<glyph name="nine" format="1">
  <advance width="573"/>
  <unicode hex="0039"/>
  <outline>
    <contour>
      <point x="531" y="495" type="curve" smooth="yes"/>
      <point x="531" y="361"/>
      <point x="470" y="246"/>
      <point x="430" y="184" type="curve" smooth="yes"/>
      <point x="300" y="-18" type="line"/>
      <point x="216" y="37" type="line"/>
      <point x="389" y="294" type="line"/>
      <point x="355" y="264"/>
      <point x="311" y="251"/>
      <point x="271" y="251" type="curve" smooth="yes"/>
      <point x="142" y="251"/>
      <point x="38" y="348"/>
      <point x="38" y="493" type="curve" smooth="yes"/>
      <point x="38" y="635"/>
      <point x="143" y="742"/>
      <point x="280" y="742" type="curve" smooth="yes"/>
      <point x="427" y="742"/>
      <point x="531" y="640"/>
    </contour>
    <contour>
      <point x="427" y="493" type="curve" smooth="yes"/>
      <point x="427" y="589"/>
      <point x="369" y="652"/>
      <point x="282" y="652" type="curve" smooth="yes"/>
      <point x="196" y="652"/>
      <point x="143" y="578"/>
      <point x="143" y="491" type="curve" smooth="yes"/>
      <point x="143" y="399"/>
      <point x="207" y="339"/>
      <point x="282" y="339" type="curve" smooth="yes"/>
      <point x="368" y="339"/>
      <point x="427" y="404"/>
    </contour>
  </outline>
</glyph>
<glyph name="colon" format="1">
  <advance width="195"/>
  <unicode hex="003A"/>
  <outline>
    <contour>
      <point x="150" y="318" type="line"/>
      <point x="45" y="318" type="line"/>
      <point x="45" y="428" type="line"/>
      <point x="150" y="428" type="line"/>
    </contour>
    <contour>
      <point x="150" y="0" type="line"/>
      <point x="45" y="0" type="line"/>
      <point x="45" y="110" type="line"/>
      <point x="150" y="110" type="line"/>
    </contour>
  </outline>
</glyph>
<glyph name="semicolon" format="1">
  <advance width="195"/>
  <unicode hex="003B"/>
  <outline>
    <contour>
      <point x="150" y="318" type="line"/>
      <point x="45" y="318" type="line"/>
      <point x="45" y="428" type="line"/>
      <point x="150" y="428" type="line"/>
    </contour>
    <contour>
      <point x="150" y="34" type="line" smooth="yes"/>
      <point x="150" y="-40"/>
      <point x="100" y="-117"/>
      <point x="78" y="-145" type="curve"/>
      <point x="18" y="-145" type="line"/>
      <point x="27" y="-122"/>
      <point x="45" y="-69"/>
      <point x="45" y="-21" type="curve" smooth="yes"/>
      <point x="45" y="110" type="line"/>
      <point x="150" y="110" type="line"/>
    </contour>
  </outline>
</glyph>
<glyph name="less" format="1">
  <advance width="370"/>
  <unicode hex="003C"/>
  <outline>
    <contour>
      <point x="309" y="102" type="line"/>
      <point x="38" y="287" type="line"/>
      <point x="38" y="362" type="line"/>
      <point x="309" y="545" type="line"/>
      <point x="309" y="440" type="line"/>
      <point x="123" y="325" type="line"/>
      <point x="309" y="209" type="line"/>
    </contour>
  </outline>
</glyph>
<glyph name="greater" format="1">
  <advance width="370"/>
  <unicode hex="003E"/>
  <outline>
    <contour>
      <point x="332" y="287" type="line"/>
      <point x="61" y="102" type="line"/>
      <point x="61" y="209" type="line"/>
      <point x="247" y="325" type="line"/>
      <point x="61" y="440" type="line"/>
      <point x="61" y="545" type="line"/>
      <point x="332" y="362" type="line"/>
    </contour>
  </outline>
</glyph>
<glyph name="question" format="1">
  <advance width="441"/>
  <unicode hex="003F"/>
  <outline>
    <contour>
      <point x="414" y="543" type="curve" smooth="yes"/>
      <point x="414" y="450"/>
      <point x="362" y="396"/>
      <point x="316" y="334" type="curve" smooth="yes"/>
      <point x="278" y="283"/>
      <point x="247" y="231"/>
      <point x="247" y="159" type="curve"/>
      <point x="150" y="159" type="line"/>
      <point x="150" y="261"/>
      <point x="200" y="328"/>
      <point x="244" y="387" type="curve" smooth="yes"/>
      <point x="282" y="438"/>
      <point x="314" y="478"/>
      <point x="314" y="537" type="curve" smooth="yes"/>
      <point x="314" y="599"/>
      <point x="277" y="655"/>
      <point x="211" y="655" type="curve" smooth="yes"/>
      <point x="158" y="655"/>
      <point x="114" y="623"/>
      <point x="82" y="583" type="curve"/>
      <point x="16" y="650" type="line"/>
      <point x="68" y="711"/>
      <point x="129" y="742"/>
      <point x="211" y="742" type="curve" smooth="yes"/>
      <point x="342" y="742"/>
      <point x="414" y="658"/>
    </contour>
    <contour>
      <point x="251" y="0" type="line"/>
      <point x="146" y="0" type="line"/>
      <point x="146" y="110" type="line"/>
      <point x="251" y="110" type="line"/>
    </contour>
  </outline>
</glyph>
<glyph name="at" format="1">
  <advance width="844"/>
  <unicode hex="0040"/>
  <outline>
    <contour>
      <point x="799" y="395" type="curve" smooth="yes"/>
      <point x="799" y="216"/>
      <point x="698" y="151"/>
      <point x="636" y="151" type="curve" smooth="yes"/>
      <point x="579" y="151"/>
      <point x="557" y="174"/>
      <point x="544" y="207" type="curve"/>
      <point x="508" y="176"/>
      <point x="452" y="151"/>
      <point x="380" y="151" type="curve" smooth="yes"/>
      <point x="277" y="151"/>
      <point x="224" y="214"/>
      <point x="224" y="291" type="curve" smooth="yes"/>
      <point x="224" y="383"/>
      <point x="309" y="438"/>
      <point x="437" y="438" type="curve" smooth="yes"/>
      <point x="537" y="438" type="line"/>
      <point x="537" y="509"/>
      <point x="498" y="526"/>
      <point x="429" y="526" type="curve" smooth="yes"/>
      <point x="377" y="526"/>
      <point x="332" y="518"/>
      <point x="296" y="502" type="curve"/>
      <point x="268" y="559" type="line"/>
      <point x="307" y="582"/>
      <point x="372" y="591"/>
      <point x="418" y="591" type="curve" smooth="yes"/>
      <point x="534" y="591"/>
      <point x="605" y="563"/>
      <point x="605" y="443" type="curve" smooth="yes"/>
      <point x="605" y="236" type="line" smooth="yes"/>
      <point x="605" y="210"/>
      <point x="618" y="203"/>
      <point x="646" y="203" type="curve" smooth="yes"/>
      <point x="680" y="203"/>
      <point x="745" y="252"/>
      <point x="745" y="392" type="curve" smooth="yes"/>
      <point x="745" y="546"/>
      <point x="620" y="687"/>
      <point x="422" y="687" type="curve" smooth="yes"/>
      <point x="244" y="687"/>
      <point x="99" y="543"/>
      <point x="99" y="364" type="curve" smooth="yes"/>
      <point x="99" y="187"/>
      <point x="244" y="42"/>
      <point x="422" y="42" type="curve" smooth="yes"/>
      <point x="460" y="42"/>
      <point x="503" y="47"/>
      <point x="552" y="70" type="curve"/>
      <point x="574" y="21" type="line"/>
      <point x="519" y="-4"/>
      <point x="468" y="-12"/>
      <point x="422" y="-12" type="curve" smooth="yes"/>
      <point x="214" y="-12"/>
      <point x="45" y="157"/>
      <point x="45" y="365" type="curve" smooth="yes"/>
      <point x="45" y="573"/>
      <point x="214" y="742"/>
      <point x="422" y="742" type="curve" smooth="yes"/>
      <point x="642" y="742"/>
      <point x="799" y="587"/>
    </contour>
    <contour>
      <point x="535" y="273" type="curve"/>
      <point x="535" y="376" type="line"/>
      <point x="436" y="376" type="line" smooth="yes"/>
      <point x="349" y="376"/>
      <point x="306" y="345"/>
      <point x="306" y="291" type="curve" smooth="yes"/>
      <point x="306" y="251"/>
      <point x="323" y="219"/>
      <point x="406" y="219" type="curve" smooth="yes"/>
      <point x="448" y="219"/>
      <point x="502" y="239"/>
    </contour>
  </outline>
</glyph>
<glyph name="A" format="1">
  <advance width="676"/>
  <unicode hex="0041"/>
  <outline>
    <contour>
      <point x="651" y="0" type="line"/>
      <point x="540" y="0" type="line"/>
      <point x="452" y="236" type="line"/>
      <point x="219" y="236" type="line"/>
      <point x="131" y="0" type="line"/>
      <point x="25" y="0" type="line"/>
      <point x="305" y="730" type="line"/>
      <point x="369" y="730" type="line"/>
    </contour>
    <contour>
      <point x="417" y="330" type="line"/>
      <point x="341" y="534" type="line" smooth="yes"/>
      <point x="338" y="542"/>
      <point x="335" y="554"/>
      <point x="335" y="554" type="curve"/>
      <point x="335" y="554"/>
      <point x="333" y="542"/>
      <point x="330" y="535" type="curve" smooth="yes"/>
      <point x="254" y="330" type="line"/>
    </contour>
  </outline>
</glyph>
<glyph name="B" format="1">
  <advance width="560"/>
  <unicode hex="0042"/>
  <outline>
    <contour>
      <point x="519" y="198" type="curve" smooth="yes"/>
      <point x="519" y="107"/>
      <point x="455" y="0"/>
      <point x="294" y="0" type="curve" smooth="yes"/>
      <point x="75" y="0" type="line"/>
      <point x="75" y="730" type="line"/>
      <point x="268" y="730" type="line" smooth="yes"/>
      <point x="392" y="730"/>
      <point x="480" y="654"/>
      <point x="480" y="540" type="curve" smooth="yes"/>
      <point x="480" y="456"/>
      <point x="443" y="402"/>
      <point x="396" y="372" type="curve"/>
      <point x="453" y="355"/>
      <point x="519" y="288"/>
    </contour>
    <contour>
      <point x="376" y="532" type="curve" smooth="yes"/>
      <point x="376" y="597"/>
      <point x="333" y="636"/>
      <point x="251" y="636" type="curve" smooth="yes"/>
      <point x="175" y="636" type="line"/>
      <point x="175" y="405" type="line"/>
      <point x="242" y="405" type="line" smooth="yes"/>
      <point x="351" y="405"/>
      <point x="376" y="471"/>
    </contour>
    <contour>
      <point x="415" y="206" type="curve" smooth="yes"/>
      <point x="415" y="269"/>
      <point x="367" y="311"/>
      <point x="293" y="311" type="curve" smooth="yes"/>
      <point x="175" y="311" type="line"/>
      <point x="175" y="94" type="line"/>
      <point x="283" y="94" type="line" smooth="yes"/>
      <point x="373" y="94"/>
      <point x="415" y="138"/>
    </contour>
  </outline>
</glyph>
<glyph name="C" format="1">
  <advance width="730"/>
  <unicode hex="0043"/>
  <outline>
    <contour>
      <point x="691" y="125" type="line"/>
      <point x="635" y="47"/>
      <point x="531" y="-12"/>
      <point x="403" y="-12" type="curve" smooth="yes"/>
      <point x="225" y="-12"/>
      <point x="45" y="133"/>
      <point x="45" y="365" type="curve" smooth="yes"/>
      <point x="45" y="576"/>
      <point x="197" y="742"/>
      <point x="407" y="742" type="curve" smooth="yes"/>
      <point x="539" y="742"/>
      <point x="618" y="697"/>
      <point x="677" y="628" type="curve"/>
      <point x="603" y="562" type="line"/>
      <point x="553" y="614"/>
      <point x="489" y="644"/>
      <point x="409" y="644" type="curve" smooth="yes"/>
      <point x="267" y="644"/>
      <point x="149" y="534"/>
      <point x="149" y="367" type="curve" smooth="yes"/>
      <point x="149" y="179"/>
      <point x="293" y="86"/>
      <point x="405" y="86" type="curve" smooth="yes"/>
      <point x="475" y="86"/>
      <point x="557" y="114"/>
      <point x="619" y="187" type="curve"/>
    </contour>
  </outline>
</glyph>
<glyph name="D" format="1">
  <advance width="696"/>
  <unicode hex="0044"/>
  <outline>
    <contour>
      <point x="651" y="367" type="curve" smooth="yes"/>
      <point x="651" y="164"/>
      <point x="502" y="0"/>
      <point x="252" y="0" type="curve" smooth="yes"/>
      <point x="75" y="0" type="line"/>
      <point x="75" y="730" type="line"/>
      <point x="261" y="730" type="line" smooth="yes"/>
      <point x="510" y="730"/>
      <point x="651" y="566"/>
    </contour>
    <contour>
      <point x="547" y="366" type="curve" smooth="yes"/>
      <point x="547" y="515"/>
      <point x="434" y="640"/>
      <point x="259" y="640" type="curve" smooth="yes"/>
      <point x="175" y="640" type="line"/>
      <point x="175" y="90" type="line"/>
      <point x="240" y="90" type="line" smooth="yes"/>
      <point x="456" y="90"/>
      <point x="547" y="230"/>
    </contour>
  </outline>
</glyph>
<glyph name="E" format="1">
  <advance width="553"/>
  <unicode hex="0045"/>
  <outline>
    <contour>
      <point x="502" y="0" type="line"/>
      <point x="75" y="0" type="line"/>
      <point x="75" y="730" type="line"/>
      <point x="483" y="730" type="line"/>
      <point x="483" y="636" type="line"/>
      <point x="175" y="636" type="line"/>
      <point x="175" y="403" type="line"/>
      <point x="476" y="403" type="line"/>
      <point x="476" y="309" type="line"/>
      <point x="175" y="309" type="line"/>
      <point x="175" y="94" type="line"/>
      <point x="502" y="94" type="line"/>
    </contour>
  </outline>
</glyph>
<glyph name="F" format="1">
  <advance width="484"/>
  <unicode hex="0046"/>
  <outline>
    <contour>
      <point x="435" y="636" type="line"/>
      <point x="175" y="636" type="line"/>
      <point x="175" y="403" type="line"/>
      <point x="420" y="403" type="line"/>
      <point x="420" y="309" type="line"/>
      <point x="175" y="309" type="line"/>
      <point x="175" y="0" type="line"/>
      <point x="75" y="0" type="line"/>
      <point x="75" y="730" type="line"/>
      <point x="435" y="730" type="line"/>
    </contour>
  </outline>
</glyph>
<glyph name="G" format="1">
  <advance width="784"/>
  <unicode hex="0047"/>
  <outline>
    <contour>
      <point x="749" y="327" type="line"/>
      <point x="749" y="129"/>
      <point x="591" y="-12"/>
      <point x="415" y="-12" type="curve" smooth="yes"/>
      <point x="230" y="-12"/>
      <point x="45" y="139"/>
      <point x="45" y="365" type="curve" smooth="yes"/>
      <point x="45" y="591"/>
      <point x="215" y="742"/>
      <point x="416" y="742" type="curve" smooth="yes"/>
      <point x="534" y="742"/>
      <point x="615" y="704"/>
      <point x="685" y="643" type="curve"/>
      <point x="624" y="569" type="line"/>
      <point x="561" y="621"/>
      <point x="499" y="644"/>
      <point x="414" y="644" type="curve" smooth="yes"/>
      <point x="267" y="644"/>
      <point x="149" y="533"/>
      <point x="149" y="364" type="curve" smooth="yes"/>
      <point x="149" y="216"/>
      <point x="270" y="86"/>
      <point x="418" y="86" type="curve" smooth="yes"/>
      <point x="523" y="86"/>
      <point x="607" y="145"/>
      <point x="633" y="233" type="curve"/>
      <point x="413" y="233" type="line"/>
      <point x="413" y="327" type="line"/>
    </contour>
  </outline>
</glyph>
<glyph name="H" format="1">
  <advance width="700"/>
  <unicode hex="0048"/>
  <outline>
    <contour>
      <point x="625" y="0" type="line"/>
      <point x="525" y="0" type="line"/>
      <point x="525" y="314" type="line"/>
      <point x="175" y="314" type="line"/>
      <point x="175" y="0" type="line"/>
      <point x="75" y="0" type="line"/>
      <point x="75" y="730" type="line"/>
      <point x="175" y="730" type="line"/>
      <point x="175" y="408" type="line"/>
      <point x="525" y="408" type="line"/>
      <point x="525" y="730" type="line"/>
      <point x="625" y="730" type="line"/>
    </contour>
  </outline>
</glyph>
<glyph name="J" format="1">
  <advance width="365"/>
  <unicode hex="004A"/>
  <outline>
    <contour>
      <point x="295" y="176" type="line" smooth="yes"/>
      <point x="295" y="83"/>
      <point x="236" y="-12"/>
      <point x="105" y="-12" type="curve" smooth="yes"/>
      <point x="80" y="-12"/>
      <point x="61" y="-12"/>
      <point x="30" y="-3" type="curve"/>
      <point x="30" y="87" type="line"/>
      <point x="52" y="82"/>
      <point x="77" y="82"/>
      <point x="97" y="82" type="curve" smooth="yes"/>
      <point x="162" y="82"/>
      <point x="195" y="120"/>
      <point x="195" y="183" type="curve" smooth="yes"/>
      <point x="195" y="730" type="line"/>
      <point x="295" y="730" type="line"/>
    </contour>
  </outline>
</glyph>
<glyph name="K" format="1">
  <advance width="646"/>
  <unicode hex="004B"/>
  <outline>
    <contour>
      <point x="633" y="0" type="line"/>
      <point x="504" y="0" type="line"/>
      <point x="211" y="338" type="line"/>
      <point x="175" y="301" type="line"/>
      <point x="175" y="0" type="line"/>
      <point x="75" y="0" type="line"/>
      <point x="75" y="730" type="line"/>
      <point x="175" y="730" type="line"/>
      <point x="175" y="431" type="line"/>
      <point x="458" y="730" type="line"/>
      <point x="586" y="730" type="line"/>
      <point x="278" y="408" type="line"/>
    </contour>
  </outline>
</glyph>
<glyph name="L" format="1">
  <advance width="479"/>
  <unicode hex="004C"/>
  <outline>
    <contour>
      <point x="452" y="0" type="line"/>
      <point x="75" y="0" type="line"/>
      <point x="75" y="730" type="line"/>
      <point x="175" y="730" type="line"/>
      <point x="175" y="94" type="line"/>
      <point x="452" y="94" type="line"/>
    </contour>
  </outline>
</glyph>
<glyph name="M" format="1">
  <advance width="866"/>
  <unicode hex="004D"/>
  <outline>
    <contour>
      <point x="791" y="0" type="line"/>
      <point x="691" y="0" type="line"/>
      <point x="691" y="537" type="line" smooth="yes"/>
      <point x="691" y="550"/>
      <point x="693" y="565"/>
      <point x="693" y="565" type="curve"/>
      <point x="693" y="565"/>
      <point x="687" y="553"/>
      <point x="683" y="548" type="curve" smooth="yes"/>
      <point x="454" y="239" type="line"/>
      <point x="414" y="239" type="line"/>
      <point x="183" y="540" type="line" smooth="yes"/>
      <point x="179" y="545"/>
      <point x="173" y="556"/>
      <point x="173" y="556" type="curve"/>
      <point x="173" y="556"/>
      <point x="175" y="542"/>
      <point x="175" y="529" type="curve" smooth="yes"/>
      <point x="175" y="0" type="line"/>
      <point x="75" y="0" type="line"/>
      <point x="75" y="730" type="line"/>
      <point x="160" y="730" type="line"/>
      <point x="435" y="373" type="line"/>
      <point x="702" y="730" type="line"/>
      <point x="791" y="730" type="line"/>
    </contour>
  </outline>
</glyph>
<glyph name="N" format="1">
  <advance width="724"/>
  <unicode hex="004E"/>
  <outline>
    <contour>
      <point x="649" y="0" type="line"/>
      <point x="569" y="0" type="line"/>
      <point x="186" y="529" type="line" smooth="yes"/>
      <point x="182" y="535"/>
      <point x="173" y="549"/>
      <point x="173" y="549" type="curve"/>
      <point x="173" y="549"/>
      <point x="175" y="533"/>
      <point x="175" y="525" type="curve" smooth="yes"/>
      <point x="175" y="0" type="line"/>
      <point x="75" y="0" type="line"/>
      <point x="75" y="730" type="line"/>
      <point x="160" y="730" type="line"/>
      <point x="538" y="211" type="line" smooth="yes"/>
      <point x="544" y="203"/>
      <point x="551" y="190"/>
      <point x="551" y="190" type="curve"/>
      <point x="551" y="190"/>
      <point x="549" y="205"/>
      <point x="549" y="214" type="curve" smooth="yes"/>
      <point x="549" y="730" type="line"/>
      <point x="649" y="730" type="line"/>
    </contour>
  </outline>
</glyph>
<glyph name="O" format="1">
  <advance width="838"/>
  <unicode hex="004F"/>
  <outline>
    <contour>
      <point x="793" y="365" type="curve" smooth="yes"/>
      <point x="793" y="153"/>
      <point x="626" y="-12"/>
      <point x="420" y="-12" type="curve" smooth="yes"/>
      <point x="211" y="-12"/>
      <point x="45" y="147"/>
      <point x="45" y="367" type="curve" smooth="yes"/>
      <point x="45" y="580"/>
      <point x="204" y="742"/>
      <point x="415" y="742" type="curve" smooth="yes"/>
      <point x="641" y="742"/>
      <point x="793" y="577"/>
    </contour>
    <contour>
      <point x="689" y="369" type="curve" smooth="yes"/>
      <point x="689" y="527"/>
      <point x="577" y="644"/>
      <point x="416" y="644" type="curve" smooth="yes"/>
      <point x="258" y="644"/>
      <point x="149" y="527"/>
      <point x="149" y="367" type="curve" smooth="yes"/>
      <point x="149" y="205"/>
      <point x="276" y="86"/>
      <point x="420" y="86" type="curve" smooth="yes"/>
      <point x="563" y="86"/>
      <point x="689" y="194"/>
    </contour>
  </outline>
</glyph>
<glyph name="P" format="1">
  <advance width="560"/>
  <unicode hex="0050"/>
  <outline>
    <contour>
      <point x="533" y="505" type="curve" smooth="yes"/>
      <point x="533" y="389"/>
      <point x="431" y="287"/>
      <point x="313" y="287" type="curve" smooth="yes"/>
      <point x="175" y="287" type="line"/>
      <point x="175" y="0" type="line"/>
      <point x="75" y="0" type="line"/>
      <point x="75" y="730" type="line"/>
      <point x="294" y="730" type="line" smooth="yes"/>
      <point x="442" y="730"/>
      <point x="533" y="632"/>
    </contour>
    <contour>
      <point x="429" y="511" type="curve" smooth="yes"/>
      <point x="429" y="591"/>
      <point x="372" y="636"/>
      <point x="279" y="636" type="curve" smooth="yes"/>
      <point x="175" y="636" type="line"/>
      <point x="175" y="381" type="line"/>
      <point x="285" y="381" type="line" smooth="yes"/>
      <point x="369" y="381"/>
      <point x="429" y="428"/>
    </contour>
  </outline>
</glyph>
<glyph name="Q" format="1">
  <advance width="838"/>
  <unicode hex="0051"/>
  <outline>
    <contour>
      <point x="793" y="365" type="curve" smooth="yes"/>
      <point x="793" y="257"/>
      <point x="750" y="161"/>
      <point x="680" y="93" type="curve"/>
      <point x="704" y="80"/>
      <point x="731" y="71"/>
      <point x="757" y="70" type="curve"/>
      <point x="689" y="-11" type="line"/>
      <point x="656" y="-2"/>
      <point x="626" y="14"/>
      <point x="600" y="34" type="curve"/>
      <point x="546" y="5"/>
      <point x="485" y="-12"/>
      <point x="420" y="-12" type="curve" smooth="yes"/>
      <point x="211" y="-12"/>
      <point x="45" y="147"/>
      <point x="45" y="367" type="curve" smooth="yes"/>
      <point x="45" y="580"/>
      <point x="204" y="742"/>
      <point x="415" y="742" type="curve" smooth="yes"/>
      <point x="641" y="742"/>
      <point x="793" y="577"/>
    </contour>
    <contour>
      <point x="689" y="369" type="curve" smooth="yes"/>
      <point x="689" y="527"/>
      <point x="577" y="644"/>
      <point x="416" y="644" type="curve" smooth="yes"/>
      <point x="258" y="644"/>
      <point x="149" y="527"/>
      <point x="149" y="367" type="curve" smooth="yes"/>
      <point x="149" y="205"/>
      <point x="276" y="86"/>
      <point x="420" y="86" type="curve" smooth="yes"/>
      <point x="457" y="86"/>
      <point x="492" y="93"/>
      <point x="525" y="106" type="curve"/>
      <point x="506" y="130"/>
      <point x="491" y="153"/>
      <point x="482" y="171" type="curve"/>
      <point x="547" y="228" type="line"/>
      <point x="559" y="205"/>
      <point x="578" y="179"/>
      <point x="600" y="155" type="curve"/>
      <point x="654" y="204"/>
      <point x="689" y="277"/>
    </contour>
  </outline>
</glyph>
<glyph name="R" format="1">
  <advance width="610"/>
  <unicode hex="0052"/>
  <outline>
    <contour>
      <point x="598" y="0" type="line"/>
      <point x="470" y="0" type="line"/>
      <point x="175" y="341" type="line"/>
      <point x="175" y="0" type="line"/>
      <point x="75" y="0" type="line"/>
      <point x="75" y="730" type="line"/>
      <point x="311" y="730" type="line" smooth="yes"/>
      <point x="447" y="730"/>
      <point x="537" y="633"/>
      <point x="537" y="515" type="curve" smooth="yes"/>
      <point x="537" y="398"/>
      <point x="438" y="306"/>
      <point x="329" y="306" type="curve"/>
    </contour>
    <contour>
      <point x="433" y="519" type="curve" smooth="yes"/>
      <point x="433" y="569"/>
      <point x="388" y="636"/>
      <point x="293" y="636" type="curve" smooth="yes"/>
      <point x="175" y="636" type="line"/>
      <point x="175" y="385" type="line"/>
      <point x="291" y="385" type="line" smooth="yes"/>
      <point x="381" y="385"/>
      <point x="433" y="441"/>
    </contour>
  </outline>
</glyph>
<glyph name="S" format="1">
  <advance width="520"/>
  <unicode hex="0053"/>
  <outline>
    <contour>
      <point x="483" y="193" type="curve" smooth="yes"/>
      <point x="483" y="62"/>
      <point x="381" y="-12"/>
      <point x="259" y="-12" type="curve" smooth="yes"/>
      <point x="185" y="-12"/>
      <point x="112" y="7"/>
      <point x="45" y="62" type="curve"/>
      <point x="102" y="139" type="line"/>
      <point x="141" y="104"/>
      <point x="204" y="85"/>
      <point x="254" y="85" type="curve" smooth="yes"/>
      <point x="328" y="85"/>
      <point x="379" y="118"/>
      <point x="379" y="187" type="curve" smooth="yes"/>
      <point x="379" y="249"/>
      <point x="322" y="283"/>
      <point x="257" y="316" type="curve" smooth="yes"/>
      <point x="153" y="369"/>
      <point x="47" y="415"/>
      <point x="47" y="554" type="curve" smooth="yes"/>
      <point x="47" y="662"/>
      <point x="127" y="742"/>
      <point x="258" y="742" type="curve" smooth="yes"/>
      <point x="331" y="742"/>
      <point x="398" y="720"/>
      <point x="455" y="680" type="curve"/>
      <point x="401" y="598" type="line"/>
      <point x="356" y="631"/>
      <point x="318" y="644"/>
      <point x="257" y="644" type="curve" smooth="yes"/>
      <point x="200" y="644"/>
      <point x="152" y="615"/>
      <point x="152" y="560" type="curve" smooth="yes"/>
      <point x="152" y="481"/>
      <point x="222" y="454"/>
      <point x="312" y="409" type="curve" smooth="yes"/>
      <point x="395" y="368"/>
      <point x="483" y="315"/>
    </contour>
  </outline>
</glyph>
<glyph name="T" format="1">
  <advance width="480"/>
  <unicode hex="0054"/>
  <outline>
    <contour>
      <point x="442" y="636" type="line"/>
      <point x="287" y="636" type="line"/>
      <point x="287" y="0" type="line"/>
      <point x="187" y="0" type="line"/>
      <point x="187" y="636" type="line"/>
      <point x="38" y="636" type="line"/>
      <point x="38" y="730" type="line"/>
      <point x="442" y="730" type="line"/>
    </contour>
  </outline>
</glyph>
<glyph name="U" format="1">
  <advance width="711"/>
  <unicode hex="0055"/>
  <outline>
    <contour>
      <point x="641" y="276" type="line" smooth="yes"/>
      <point x="641" y="102"/>
      <point x="518" y="-12"/>
      <point x="355" y="-12" type="curve" smooth="yes"/>
      <point x="187" y="-12"/>
      <point x="70" y="96"/>
      <point x="70" y="276" type="curve" smooth="yes"/>
      <point x="70" y="730" type="line"/>
      <point x="171" y="730" type="line"/>
      <point x="171" y="276" type="line" smooth="yes"/>
      <point x="171" y="135"/>
      <point x="259" y="82"/>
      <point x="355" y="82" type="curve" smooth="yes"/>
      <point x="450" y="82"/>
      <point x="542" y="136"/>
      <point x="542" y="276" type="curve" smooth="yes"/>
      <point x="542" y="730" type="line"/>
      <point x="641" y="730" type="line"/>
    </contour>
  </outline>
</glyph>
<glyph name="V" format="1">
  <advance width="625"/>
  <unicode hex="0056"/>
  <outline>
    <contour>
      <point x="600" y="730" type="line"/>
      <point x="344" y="0" type="line"/>
      <point x="282" y="0" type="line"/>
      <point x="25" y="730" type="line"/>
      <point x="122" y="730" type="line"/>
      <point x="307" y="203" type="line" smooth="yes"/>
      <point x="310" y="194"/>
      <point x="313" y="178"/>
      <point x="313" y="178" type="curve"/>
      <point x="313" y="178"/>
      <point x="316" y="194"/>
      <point x="319" y="203" type="curve" smooth="yes"/>
      <point x="505" y="730" type="line"/>
    </contour>
  </outline>
</glyph>
<glyph name="W" format="1">
  <advance width="919"/>
  <unicode hex="0057"/>
  <outline>
    <contour>
      <point x="883" y="730" type="line"/>
      <point x="679" y="0" type="line"/>
      <point x="611" y="0" type="line"/>
      <point x="463" y="487" type="line" smooth="yes"/>
      <point x="457" y="505"/>
      <point x="454" y="524"/>
      <point x="454" y="524" type="curve"/>
      <point x="454" y="524"/>
      <point x="450" y="503"/>
      <point x="445" y="487" type="curve" smooth="yes"/>
      <point x="294" y="0" type="line"/>
      <point x="228" y="0" type="line"/>
      <point x="36" y="730" type="line"/>
      <point x="134" y="730" type="line"/>
      <point x="261" y="251" type="line" smooth="yes"/>
      <point x="264" y="238"/>
      <point x="267" y="220"/>
      <point x="267" y="220" type="curve"/>
      <point x="267" y="220"/>
      <point x="271" y="239"/>
      <point x="275" y="252" type="curve" smooth="yes"/>
      <point x="426" y="730" type="line"/>
      <point x="492" y="730" type="line"/>
      <point x="638" y="248" type="line" smooth="yes"/>
      <point x="641" y="237"/>
      <point x="644" y="219"/>
      <point x="644" y="219" type="curve"/>
      <point x="644" y="219"/>
      <point x="647" y="237"/>
      <point x="650" y="249" type="curve" smooth="yes"/>
      <point x="786" y="730" type="line"/>
    </contour>
  </outline>
</glyph>
<glyph name="X" format="1">
  <advance width="688"/>
  <unicode hex="0058"/>
  <outline>
    <contour>
      <point x="658" y="0" type="line"/>
      <point x="537" y="0" type="line"/>
      <point x="374" y="249" type="line" smooth="yes"/>
      <point x="362" y="267"/>
      <point x="343" y="300"/>
      <point x="343" y="300" type="curve"/>
      <point x="343" y="300"/>
      <point x="324" y="268"/>
      <point x="310" y="247" type="curve" smooth="yes"/>
      <point x="148" y="0" type="line"/>
      <point x="32" y="0" type="line"/>
      <point x="285" y="385" type="line"/>
      <point x="61" y="730" type="line"/>
      <point x="184" y="730" type="line"/>
      <point x="324" y="514" type="line" smooth="yes"/>
      <point x="335" y="497"/>
      <point x="347" y="476"/>
      <point x="347" y="476" type="curve"/>
      <point x="347" y="476"/>
      <point x="358" y="497"/>
      <point x="371" y="516" type="curve" smooth="yes"/>
      <point x="512" y="730" type="line"/>
      <point x="627" y="730" type="line"/>
      <point x="404" y="390" type="line"/>
    </contour>
  </outline>
</glyph>
<glyph name="Y" format="1">
  <advance width="645"/>
  <unicode hex="0059"/>
  <outline>
    <contour>
      <point x="625" y="730" type="line"/>
      <point x="371" y="339" type="line"/>
      <point x="371" y="0" type="line"/>
      <point x="271" y="0" type="line"/>
      <point x="271" y="339" type="line"/>
      <point x="20" y="730" type="line"/>
      <point x="136" y="730" type="line"/>
      <point x="312" y="457" type="line" smooth="yes"/>
      <point x="316" y="451"/>
      <point x="323" y="436"/>
      <point x="323" y="436" type="curve"/>
      <point x="323" y="436"/>
      <point x="330" y="450"/>
      <point x="335" y="458" type="curve" smooth="yes"/>
      <point x="511" y="730" type="line"/>
    </contour>
  </outline>
</glyph>
<glyph name="Z" format="1">
  <advance width="618"/>
  <unicode hex="005A"/>
  <outline>
    <contour>
      <point x="586" y="730" type="line"/>
      <point x="199" y="112" type="line" smooth="yes"/>
      <point x="194" y="104"/>
      <point x="187" y="97"/>
      <point x="187" y="97" type="curve"/>
      <point x="187" y="97"/>
      <point x="199" y="98"/>
      <point x="208" y="98" type="curve" smooth="yes"/>
      <point x="574" y="98" type="line"/>
      <point x="574" y="0" type="line"/>
      <point x="14" y="0" type="line"/>
      <point x="396" y="614" type="line" smooth="yes"/>
      <point x="402" y="623"/>
      <point x="410" y="633"/>
      <point x="410" y="633" type="curve"/>
      <point x="410" y="633"/>
      <point x="399" y="632"/>
      <point x="389" y="632" type="curve" smooth="yes"/>
      <point x="77" y="632" type="line"/>
      <point x="77" y="730" type="line"/>
    </contour>
  </outline>
</glyph>
<glyph name="bracketleft" format="1">
  <advance width="305"/>
  <unicode hex="005B"/>
  <outline>
    <contour>
      <point x="275" y="-179" type="line"/>
      <point x="75" y="-179" type="line"/>
      <point x="75" y="730" type="line"/>
      <point x="275" y="730" type="line"/>
      <point x="275" y="641" type="line"/>
      <point x="170" y="641" type="line"/>
      <point x="170" y="-90" type="line"/>
      <point x="275" y="-90" type="line"/>
    </contour>
  </outline>
</glyph>
<glyph name="backslash" format="1">
  <advance width="386"/>
  <unicode hex="005C"/>
  <outline>
    <contour>
      <point x="372" y="0" type="line"/>
      <point x="277" y="0" type="line"/>
      <point x="14" y="730" type="line"/>
      <point x="109" y="730" type="line"/>
    </contour>
  </outline>
</glyph>
<glyph name="bracketright" format="1">
  <advance width="305"/>
  <unicode hex="005D"/>
  <outline>
    <contour>
      <point x="230" y="-179" type="line"/>
      <point x="30" y="-179" type="line"/>
      <point x="30" y="-90" type="line"/>
      <point x="135" y="-90" type="line"/>
      <point x="135" y="641" type="line"/>
      <point x="30" y="641" type="line"/>
      <point x="30" y="730" type="line"/>
      <point x="230" y="730" type="line"/>
    </contour>
  </outline>
</glyph>
<glyph name="asciicircum" format="1">
  <advance width="483"/>
  <unicode hex="005E"/>
  <outline>
    <contour>
      <point x="453" y="369" type="line"/>
      <point x="346" y="369" type="line"/>
      <point x="240" y="635" type="line"/>
      <point x="135" y="369" type="line"/>
      <point x="30" y="369" type="line"/>
      <point x="193" y="730" type="line"/>
      <point x="288" y="730" type="line"/>
    </contour>
  </outline>
</glyph>
<glyph name="grave" format="1">
  <advance width="500"/>
  <unicode hex="0060"/>
  <outline>
    <contour>
      <point x="351" y="493" type="line"/>
      <point x="255" y="493" type="line"/>
      <point x="162" y="640" type="line"/>
      <point x="258" y="640" type="line"/>
    </contour>
  </outline>
</glyph>
<glyph name="a" format="1">
  <advance width="461"/>
  <unicode hex="0061"/>
  <outline>
    <contour>
      <point x="411" y="0" type="line"/>
      <point x="316" y="0" type="line"/>
      <point x="316" y="30" type="line"/>
      <point x="278" y="1"/>
      <point x="236" y="-12"/>
      <point x="186" y="-12" type="curve" smooth="yes"/>
      <point x="81" y="-12"/>
      <point x="30" y="51"/>
      <point x="30" y="128" type="curve" smooth="yes"/>
      <point x="30" y="226"/>
      <point x="128" y="280"/>
      <point x="256" y="280" type="curve" smooth="yes"/>
      <point x="318" y="280" type="line"/>
      <point x="318" y="330"/>
      <point x="297" y="348"/>
      <point x="235" y="348" type="curve" smooth="yes"/>
      <point x="183" y="348"/>
      <point x="143" y="341"/>
      <point x="107" y="325" type="curve"/>
      <point x="74" y="396" type="line"/>
      <point x="113" y="419"/>
      <point x="178" y="428"/>
      <point x="224" y="428" type="curve" smooth="yes"/>
      <point x="340" y="428"/>
      <point x="411" y="394"/>
      <point x="411" y="304" type="curve" smooth="yes"/>
    </contour>
    <contour>
      <point x="316" y="105" type="curve"/>
      <point x="316" y="203" type="line"/>
      <point x="289" y="203" type="line" smooth="yes"/>
      <point x="181" y="203"/>
      <point x="127" y="181"/>
      <point x="127" y="128" type="curve" smooth="yes"/>
      <point x="127" y="88"/>
      <point x="172" y="72"/>
      <point x="212" y="72" type="curve" smooth="yes"/>
      <point x="254" y="72"/>
      <point x="278" y="79"/>
    </contour>
  </outline>
</glyph>
<glyph name="c" format="1">
  <advance width="460"/>
  <unicode hex="0063"/>
  <outline>
    <contour>
      <point x="438" y="89" type="line"/>
      <point x="399" y="35"/>
      <point x="329" y="-12"/>
      <point x="253" y="-12" type="curve" smooth="yes"/>
      <point x="108" y="-12"/>
      <point x="35" y="86"/>
      <point x="35" y="208" type="curve" smooth="yes"/>
      <point x="35" y="324"/>
      <point x="118" y="428"/>
      <point x="245" y="428" type="curve" smooth="yes"/>
      <point x="340" y="428"/>
      <point x="402" y="373"/>
      <point x="430" y="331" type="curve"/>
      <point x="361" y="279" type="line"/>
      <point x="339" y="307"/>
      <point x="305" y="340"/>
      <point x="246" y="340" type="curve" smooth="yes"/>
      <point x="174" y="340"/>
      <point x="132" y="274"/>
      <point x="132" y="212" type="curve" smooth="yes"/>
      <point x="132" y="125"/>
      <point x="180" y="76"/>
      <point x="252" y="76" type="curve" smooth="yes"/>
      <point x="301" y="76"/>
      <point x="340" y="102"/>
      <point x="373" y="141" type="curve"/>
    </contour>
  </outline>
</glyph>
<glyph name="d" format="1">
  <advance width="492"/>
  <unicode hex="0064"/>
  <outline>
    <contour>
      <point x="432" y="0" type="line"/>
      <point x="337" y="0" type="line"/>
      <point x="337" y="46" type="line"/>
      <point x="316" y="16"/>
      <point x="276" y="-12"/>
      <point x="219" y="-12" type="curve" smooth="yes"/>
      <point x="111" y="-12"/>
      <point x="35" y="90"/>
      <point x="35" y="211" type="curve" smooth="yes"/>
      <point x="35" y="334"/>
      <point x="111" y="428"/>
      <point x="219" y="428" type="curve" smooth="yes"/>
      <point x="268" y="428"/>
      <point x="306" y="410"/>
      <point x="337" y="372" type="curve"/>
      <point x="337" y="730" type="line"/>
      <point x="432" y="730" type="line"/>
    </contour>
    <contour>
      <point x="345" y="210" type="curve" smooth="yes"/>
      <point x="345" y="276"/>
      <point x="304" y="340"/>
      <point x="238" y="340" type="curve" smooth="yes"/>
      <point x="170" y="340"/>
      <point x="132" y="276"/>
      <point x="132" y="207" type="curve" smooth="yes"/>
      <point x="132" y="137"/>
      <point x="170" y="76"/>
      <point x="237" y="76" type="curve" smooth="yes"/>
      <point x="304" y="76"/>
      <point x="345" y="140"/>
    </contour>
  </outline>
</glyph>
<glyph name="e" format="1">
  <advance width="490"/>
  <unicode hex="0065"/>
  <outline>
    <contour>
      <point x="457" y="196" type="curve"/>
      <point x="130" y="196" type="line"/>
      <point x="133" y="129"/>
      <point x="180" y="76"/>
      <point x="253" y="76" type="curve" smooth="yes"/>
      <point x="318" y="76"/>
      <point x="354" y="97"/>
      <point x="392" y="126" type="curve"/>
      <point x="450" y="66" type="line"/>
      <point x="398" y="21"/>
      <point x="340" y="-12"/>
      <point x="252" y="-12" type="curve" smooth="yes"/>
      <point x="130" y="-12"/>
      <point x="35" y="72"/>
      <point x="35" y="212" type="curve" smooth="yes"/>
      <point x="35" y="334"/>
      <point x="123" y="428"/>
      <point x="248" y="428" type="curve" smooth="yes"/>
      <point x="373" y="428"/>
      <point x="457" y="331"/>
    </contour>
    <contour>
      <point x="354" y="268" type="line"/>
      <point x="339" y="316"/>
      <point x="297" y="343"/>
      <point x="244" y="343" type="curve" smooth="yes"/>
      <point x="190" y="343"/>
      <point x="145" y="314"/>
      <point x="134" y="268" type="curve"/>
    </contour>
  </outline>
</glyph>
<glyph name="g" format="1">
  <advance width="492"/>
  <unicode hex="0067"/>
  <outline>
    <contour>
      <point x="432" y="4" type="line" smooth="yes"/>
      <point x="432" y="-142"/>
      <point x="337" y="-189"/>
      <point x="226" y="-189" type="curve" smooth="yes"/>
      <point x="166" y="-189"/>
      <point x="106" y="-176"/>
      <point x="63" y="-140" type="curve"/>
      <point x="110" y="-70" type="line"/>
      <point x="157" y="-101"/>
      <point x="192" y="-104"/>
      <point x="222" y="-104" type="curve" smooth="yes"/>
      <point x="282" y="-104"/>
      <point x="337" y="-78"/>
      <point x="337" y="-20" type="curve" smooth="yes"/>
      <point x="337" y="45" type="line"/>
      <point x="309" y="6"/>
      <point x="268" y="-12"/>
      <point x="219" y="-12" type="curve" smooth="yes"/>
      <point x="111" y="-12"/>
      <point x="35" y="79"/>
      <point x="35" y="202" type="curve" smooth="yes"/>
      <point x="35" y="323"/>
      <point x="111" y="428"/>
      <point x="219" y="428" type="curve" smooth="yes"/>
      <point x="276" y="428"/>
      <point x="316" y="399"/>
      <point x="337" y="369" type="curve"/>
      <point x="337" y="416" type="line"/>
      <point x="432" y="416" type="line"/>
    </contour>
    <contour>
      <point x="345" y="208" type="curve" smooth="yes"/>
      <point x="345" y="274"/>
      <point x="304" y="340"/>
      <point x="238" y="340" type="curve" smooth="yes"/>
      <point x="170" y="340"/>
      <point x="132" y="277"/>
      <point x="132" y="208" type="curve" smooth="yes"/>
      <point x="132" y="138"/>
      <point x="170" y="76"/>
      <point x="237" y="76" type="curve" smooth="yes"/>
      <point x="303" y="76"/>
      <point x="345" y="138"/>
    </contour>
  </outline>
</glyph>
<glyph name="h" format="1">
  <advance width="473"/>
  <unicode hex="0068"/>
  <outline>
    <contour>
      <point x="423" y="0" type="line"/>
      <point x="328" y="0" type="line"/>
      <point x="328" y="253" type="line" smooth="yes"/>
      <point x="328" y="314"/>
      <point x="292" y="340"/>
      <point x="252" y="340" type="curve" smooth="yes"/>
      <point x="200" y="340"/>
      <point x="155" y="300"/>
      <point x="155" y="223" type="curve" smooth="yes"/>
      <point x="155" y="0" type="line"/>
      <point x="60" y="0" type="line"/>
      <point x="60" y="730" type="line"/>
      <point x="155" y="730" type="line"/>
      <point x="155" y="366" type="line"/>
      <point x="176" y="399"/>
      <point x="219" y="428"/>
      <point x="271" y="428" type="curve" smooth="yes"/>
      <point x="357" y="428"/>
      <point x="423" y="376"/>
      <point x="423" y="271" type="curve" smooth="yes"/>
    </contour>
  </outline>
</glyph>
<glyph name="i" format="1">
  <advance width="215"/>
  <unicode hex="0069"/>
  <outline>
    <contour>
      <point x="155" y="511" type="line"/>
      <point x="60" y="511" type="line"/>
      <point x="60" y="626" type="line"/>
      <point x="155" y="626" type="line"/>
    </contour>
    <contour>
      <point x="155" y="0" type="line"/>
      <point x="60" y="0" type="line"/>
      <point x="60" y="416" type="line"/>
      <point x="155" y="416" type="line"/>
    </contour>
  </outline>
</glyph>
<glyph name="j" format="1">
  <advance width="215"/>
  <unicode hex="006A"/>
  <outline>
    <contour>
      <point x="155" y="511" type="line"/>
      <point x="60" y="511" type="line"/>
      <point x="60" y="626" type="line"/>
      <point x="155" y="626" type="line"/>
    </contour>
    <contour>
      <point x="155" y="-62" type="line" smooth="yes"/>
      <point x="155" y="-155"/>
      <point x="87" y="-179"/>
      <point x="34" y="-179" type="curve" smooth="yes"/>
      <point x="11" y="-179"/>
      <point x="7" y="-179"/>
      <point x="-15" y="-174" type="curve"/>
      <point x="-15" y="-92" type="line"/>
      <point x="11" y="-95"/>
      <point x="14" y="-95"/>
      <point x="28" y="-94" type="curve" smooth="yes"/>
      <point x="38" y="-93"/>
      <point x="60" y="-93"/>
      <point x="60" y="-64" type="curve" smooth="yes"/>
      <point x="60" y="416" type="line"/>
      <point x="155" y="416" type="line"/>
    </contour>
  </outline>
</glyph>
<glyph name="k" format="1">
  <advance width="470"/>
  <unicode hex="006B"/>
  <outline>
    <contour>
      <point x="452" y="0" type="line"/>
      <point x="329" y="0" type="line"/>
      <point x="200" y="180" type="line"/>
      <point x="155" y="141" type="line"/>
      <point x="155" y="0" type="line"/>
      <point x="60" y="0" type="line"/>
      <point x="60" y="730" type="line"/>
      <point x="155" y="730" type="line"/>
      <point x="155" y="257" type="line"/>
      <point x="320" y="416" type="line"/>
      <point x="451" y="416" type="line"/>
      <point x="270" y="246" type="line"/>
    </contour>
  </outline>
</glyph>
<glyph name="m" format="1">
  <advance width="725"/>
  <unicode hex="006D"/>
  <outline>
    <contour>
      <point x="675" y="0" type="line"/>
      <point x="580" y="0" type="line"/>
      <point x="580" y="266" type="line" smooth="yes"/>
      <point x="580" y="317"/>
      <point x="549" y="340"/>
      <point x="507" y="340" type="curve" smooth="yes"/>
      <point x="456" y="340"/>
      <point x="415" y="300"/>
      <point x="415" y="248" type="curve" smooth="yes"/>
      <point x="415" y="0" type="line"/>
      <point x="320" y="0" type="line"/>
      <point x="320" y="266" type="line" smooth="yes"/>
      <point x="320" y="317"/>
      <point x="287" y="340"/>
      <point x="245" y="340" type="curve" smooth="yes"/>
      <point x="194" y="340"/>
      <point x="155" y="300"/>
      <point x="155" y="247" type="curve" smooth="yes"/>
      <point x="155" y="0" type="line"/>
      <point x="60" y="0" type="line"/>
      <point x="60" y="416" type="line"/>
      <point x="155" y="416" type="line"/>
      <point x="155" y="376" type="line"/>
      <point x="179" y="406"/>
      <point x="221" y="428"/>
      <point x="265" y="428" type="curve" smooth="yes"/>
      <point x="331" y="428"/>
      <point x="369" y="405"/>
      <point x="396" y="364" type="curve"/>
      <point x="428" y="408"/>
      <point x="487" y="428"/>
      <point x="530" y="428" type="curve" smooth="yes"/>
      <point x="639" y="428"/>
      <point x="675" y="359"/>
      <point x="675" y="275" type="curve" smooth="yes"/>
    </contour>
  </outline>
</glyph>
<glyph name="n" format="1">
  <advance width="476"/>
  <unicode hex="006E"/>
  <outline>
    <contour>
      <point x="426" y="0" type="line"/>
      <point x="331" y="0" type="line"/>
      <point x="331" y="253" type="line" smooth="yes"/>
      <point x="331" y="304"/>
      <point x="306" y="340"/>
      <point x="252" y="340" type="curve" smooth="yes"/>
      <point x="181" y="340"/>
      <point x="155" y="275"/>
      <point x="155" y="224" type="curve" smooth="yes"/>
      <point x="155" y="0" type="line"/>
      <point x="60" y="0" type="line"/>
      <point x="60" y="416" type="line"/>
      <point x="155" y="416" type="line"/>
      <point x="155" y="366" type="line"/>
      <point x="181" y="406"/>
      <point x="225" y="428"/>
      <point x="273" y="428" type="curve" smooth="yes"/>
      <point x="362" y="428"/>
      <point x="426" y="374"/>
      <point x="426" y="271" type="curve" smooth="yes"/>
    </contour>
  </outline>
</glyph>
<glyph name="o" format="1">
  <advance width="496"/>
  <unicode hex="006F"/>
  <outline>
    <contour>
      <point x="461" y="215" type="curve" smooth="yes"/>
      <point x="461" y="89"/>
      <point x="374" y="-12"/>
      <point x="247" y="-12" type="curve" smooth="yes"/>
      <point x="124" y="-12"/>
      <point x="35" y="75"/>
      <point x="35" y="211" type="curve" smooth="yes"/>
      <point x="35" y="323"/>
      <point x="115" y="428"/>
      <point x="245" y="428" type="curve" smooth="yes"/>
      <point x="375" y="428"/>
      <point x="461" y="328"/>
    </contour>
    <contour>
      <point x="364" y="209" type="curve" smooth="yes"/>
      <point x="364" y="290"/>
      <point x="318" y="340"/>
      <point x="245" y="340" type="curve" smooth="yes"/>
      <point x="174" y="340"/>
      <point x="132" y="282"/>
      <point x="132" y="211" type="curve" smooth="yes"/>
      <point x="132" y="128"/>
      <point x="174" y="76"/>
      <point x="244" y="76" type="curve" smooth="yes"/>
      <point x="329" y="76"/>
      <point x="364" y="134"/>
    </contour>
  </outline>
</glyph>
<glyph name="p" format="1">
  <advance width="492"/>
  <unicode hex="0070"/>
  <outline>
    <contour>
      <point x="457" y="205" type="curve" smooth="yes"/>
      <point x="457" y="82"/>
      <point x="381" y="-12"/>
      <point x="273" y="-12" type="curve" smooth="yes"/>
      <point x="224" y="-12"/>
      <point x="181" y="9"/>
      <point x="155" y="45" type="curve"/>
      <point x="155" y="-179" type="line"/>
      <point x="60" y="-179" type="line"/>
      <point x="60" y="416" type="line"/>
      <point x="155" y="416" type="line"/>
      <point x="155" y="369" type="line"/>
      <point x="176" y="399"/>
      <point x="216" y="428"/>
      <point x="273" y="428" type="curve" smooth="yes"/>
      <point x="381" y="428"/>
      <point x="457" y="326"/>
    </contour>
    <contour>
      <point x="360" y="209" type="curve" smooth="yes"/>
      <point x="360" y="279"/>
      <point x="322" y="340"/>
      <point x="255" y="340" type="curve" smooth="yes"/>
      <point x="189" y="340"/>
      <point x="147" y="276"/>
      <point x="147" y="206" type="curve" smooth="yes"/>
      <point x="147" y="140"/>
      <point x="188" y="76"/>
      <point x="254" y="76" type="curve" smooth="yes"/>
      <point x="322" y="76"/>
      <point x="360" y="140"/>
    </contour>
  </outline>
</glyph>
<glyph name="q" format="1">
  <advance width="492"/>
  <unicode hex="0071"/>
  <outline>
    <contour>
      <point x="432" y="-179" type="line"/>
      <point x="337" y="-179" type="line"/>
      <point x="337" y="45" type="line"/>
      <point x="311" y="9"/>
      <point x="268" y="-12"/>
      <point x="219" y="-12" type="curve" smooth="yes"/>
      <point x="111" y="-12"/>
      <point x="35" y="79"/>
      <point x="35" y="202" type="curve" smooth="yes"/>
      <point x="35" y="323"/>
      <point x="111" y="428"/>
      <point x="219" y="428" type="curve" smooth="yes"/>
      <point x="276" y="428"/>
      <point x="316" y="399"/>
      <point x="337" y="369" type="curve"/>
      <point x="337" y="416" type="line"/>
      <point x="432" y="416" type="line"/>
    </contour>
    <contour>
      <point x="345" y="208" type="curve" smooth="yes"/>
      <point x="345" y="274"/>
      <point x="304" y="340"/>
      <point x="238" y="340" type="curve" smooth="yes"/>
      <point x="170" y="340"/>
      <point x="132" y="277"/>
      <point x="132" y="208" type="curve" smooth="yes"/>
      <point x="132" y="138"/>
      <point x="170" y="76"/>
      <point x="237" y="76" type="curve" smooth="yes"/>
      <point x="303" y="76"/>
      <point x="345" y="138"/>
    </contour>
  </outline>
</glyph>
<glyph name="r" format="1">
  <advance width="354"/>
  <unicode hex="0072"/>
  <outline>
    <contour>
      <point x="349" y="397" type="curve"/>
      <point x="306" y="317" type="line"/>
      <point x="284" y="333"/>
      <point x="264" y="338"/>
      <point x="246" y="338" type="curve" smooth="yes"/>
      <point x="193" y="338"/>
      <point x="155" y="291"/>
      <point x="155" y="211" type="curve" smooth="yes"/>
      <point x="155" y="0" type="line"/>
      <point x="60" y="0" type="line"/>
      <point x="60" y="416" type="line"/>
      <point x="155" y="416" type="line"/>
      <point x="155" y="366" type="line"/>
      <point x="185" y="407"/>
      <point x="223" y="428"/>
      <point x="267" y="428" type="curve" smooth="yes"/>
      <point x="300" y="428"/>
      <point x="323" y="418"/>
    </contour>
  </outline>
</glyph>
<glyph name="s" format="1">
  <advance width="364"/>
  <unicode hex="0073"/>
  <outline>
    <contour>
      <point x="328" y="116" type="curve" smooth="yes"/>
      <point x="328" y="46"/>
      <point x="268" y="-10"/>
      <point x="184" y="-10" type="curve" smooth="yes"/>
      <point x="126" y="-10"/>
      <point x="76" y="9"/>
      <point x="34" y="43" type="curve"/>
      <point x="81" y="114" type="line"/>
      <point x="116" y="86"/>
      <point x="156" y="75"/>
      <point x="179" y="75" type="curve" smooth="yes"/>
      <point x="206" y="75"/>
      <point x="233" y="86"/>
      <point x="233" y="111" type="curve" smooth="yes"/>
      <point x="233" y="140"/>
      <point x="207" y="155"/>
      <point x="171" y="173" type="curve" smooth="yes"/>
      <point x="117" y="199"/>
      <point x="45" y="227"/>
      <point x="45" y="311" type="curve" smooth="yes"/>
      <point x="45" y="376"/>
      <point x="107" y="428"/>
      <point x="183" y="428" type="curve" smooth="yes"/>
      <point x="223" y="428"/>
      <point x="273" y="421"/>
      <point x="317" y="391" type="curve"/>
      <point x="278" y="316" type="line"/>
      <point x="248" y="337"/>
      <point x="211" y="345"/>
      <point x="187" y="345" type="curve" smooth="yes"/>
      <point x="165" y="345"/>
      <point x="140" y="339"/>
      <point x="140" y="313" type="curve" smooth="yes"/>
      <point x="140" y="291"/>
      <point x="170" y="277"/>
      <point x="207" y="259" type="curve" smooth="yes"/>
      <point x="261" y="232"/>
      <point x="328" y="197"/>
    </contour>
  </outline>
</glyph>
<glyph name="t" format="1">
  <advance width="290"/>
  <unicode hex="0074"/>
  <outline>
    <contour>
      <point x="251" y="-5" type="line"/>
      <point x="251" y="-5"/>
      <point x="239" y="-6"/>
      <point x="235" y="-6" type="curve" smooth="yes"/>
      <point x="140" y="-6"/>
      <point x="80" y="13"/>
      <point x="80" y="135" type="curve" smooth="yes"/>
      <point x="80" y="328" type="line"/>
      <point x="23" y="328" type="line"/>
      <point x="23" y="416" type="line"/>
      <point x="80" y="416" type="line"/>
      <point x="80" y="611" type="line"/>
      <point x="175" y="611" type="line"/>
      <point x="175" y="416" type="line"/>
      <point x="250" y="416" type="line"/>
      <point x="250" y="328" type="line"/>
      <point x="175" y="328" type="line"/>
      <point x="175" y="138" type="line" smooth="yes"/>
      <point x="175" y="94"/>
      <point x="191" y="84"/>
      <point x="234" y="84" type="curve" smooth="yes"/>
      <point x="239" y="84"/>
      <point x="251" y="85"/>
      <point x="251" y="85" type="curve"/>
    </contour>
  </outline>
</glyph>
<glyph name="u" format="1">
  <advance width="481"/>
  <unicode hex="0075"/>
  <outline>
    <contour>
      <point x="421" y="0" type="line"/>
      <point x="326" y="0" type="line"/>
      <point x="326" y="50" type="line"/>
      <point x="303" y="15"/>
      <point x="261" y="-12"/>
      <point x="208" y="-12" type="curve" smooth="yes"/>
      <point x="109" y="-12"/>
      <point x="55" y="42"/>
      <point x="55" y="145" type="curve" smooth="yes"/>
      <point x="55" y="416" type="line"/>
      <point x="150" y="416" type="line"/>
      <point x="150" y="163" type="line" smooth="yes"/>
      <point x="150" y="116"/>
      <point x="177" y="76"/>
      <point x="229" y="76" type="curve" smooth="yes"/>
      <point x="295" y="76"/>
      <point x="326" y="141"/>
      <point x="326" y="192" type="curve" smooth="yes"/>
      <point x="326" y="416" type="line"/>
      <point x="421" y="416" type="line"/>
    </contour>
  </outline>
</glyph>
<glyph name="v" format="1">
  <advance width="421"/>
  <unicode hex="0076"/>
  <outline>
    <contour>
      <point x="411" y="416" type="line"/>
      <point x="210" y="-12" type="line"/>
      <point x="10" y="416" type="line"/>
      <point x="115" y="416" type="line"/>
      <point x="205" y="215" type="line" smooth="yes"/>
      <point x="209" y="207"/>
      <point x="212" y="195"/>
      <point x="212" y="195" type="curve"/>
      <point x="212" y="195"/>
      <point x="215" y="208"/>
      <point x="219" y="216" type="curve" smooth="yes"/>
      <point x="310" y="416" type="line"/>
    </contour>
  </outline>
</glyph>
<glyph name="w" format="1">
  <advance width="633"/>
  <unicode hex="0077"/>
  <outline>
    <contour>
      <point x="623" y="416" type="line"/>
      <point x="437" y="-12" type="line"/>
      <point x="325" y="233" type="line" smooth="yes"/>
      <point x="321" y="242"/>
      <point x="317" y="254"/>
      <point x="317" y="254" type="curve"/>
      <point x="317" y="254"/>
      <point x="313" y="242"/>
      <point x="309" y="233" type="curve" smooth="yes"/>
      <point x="195" y="-12" type="line"/>
      <point x="10" y="416" type="line"/>
      <point x="112" y="416" type="line"/>
      <point x="197" y="220" type="line" smooth="yes"/>
      <point x="200" y="213"/>
      <point x="204" y="201"/>
      <point x="204" y="201" type="curve"/>
      <point x="204" y="201"/>
      <point x="208" y="212"/>
      <point x="213" y="222" type="curve" smooth="yes"/>
      <point x="317" y="428" type="line"/>
      <point x="420" y="222" type="line" smooth="yes"/>
      <point x="424" y="213"/>
      <point x="429" y="201"/>
      <point x="429" y="201" type="curve"/>
      <point x="429" y="201"/>
      <point x="434" y="214"/>
      <point x="438" y="224" type="curve" smooth="yes"/>
      <point x="522" y="416" type="line"/>
    </contour>
  </outline>
</glyph>
<glyph name="x" format="1">
  <advance width="444"/>
  <unicode hex="0078"/>
  <outline>
    <contour>
      <point x="434" y="0" type="line"/>
      <point x="318" y="0" type="line"/>
      <point x="235" y="124" type="line" smooth="yes"/>
      <point x="229" y="133"/>
      <point x="221" y="147"/>
      <point x="221" y="147" type="curve"/>
      <point x="221" y="147"/>
      <point x="214" y="132"/>
      <point x="208" y="124" type="curve" smooth="yes"/>
      <point x="126" y="0" type="line"/>
      <point x="10" y="0" type="line"/>
      <point x="164" y="229" type="line"/>
      <point x="39" y="416" type="line"/>
      <point x="155" y="416" type="line"/>
      <point x="209" y="335" type="line" smooth="yes"/>
      <point x="214" y="327"/>
      <point x="222" y="313"/>
      <point x="222" y="313" type="curve"/>
      <point x="222" y="313"/>
      <point x="230" y="328"/>
      <point x="236" y="336" type="curve" smooth="yes"/>
      <point x="289" y="416" type="line"/>
      <point x="402" y="416" type="line"/>
      <point x="279" y="231" type="line"/>
    </contour>
  </outline>
</glyph>
<glyph name="y" format="1">
  <advance width="424"/>
  <unicode hex="0079"/>
  <outline>
    <contour>
      <point x="412" y="416" type="line"/>
      <point x="233" y="-74" type="line" smooth="yes"/>
      <point x="213" y="-129"/>
      <point x="185" y="-179"/>
      <point x="101" y="-179" type="curve" smooth="yes"/>
      <point x="77" y="-179"/>
      <point x="59" y="-178"/>
      <point x="34" y="-170" type="curve"/>
      <point x="34" y="-84" type="line"/>
      <point x="47" y="-89"/>
      <point x="62" y="-93"/>
      <point x="75" y="-93" type="curve" smooth="yes"/>
      <point x="136" y="-93"/>
      <point x="142" y="-51"/>
      <point x="157" y="-8" type="curve"/>
      <point x="12" y="416" type="line"/>
      <point x="115" y="416" type="line"/>
      <point x="207" y="144" type="line" smooth="yes"/>
      <point x="209" y="137"/>
      <point x="213" y="119"/>
      <point x="213" y="119" type="curve"/>
      <point x="213" y="119"/>
      <point x="217" y="136"/>
      <point x="220" y="145" type="curve" smooth="yes"/>
      <point x="311" y="416" type="line"/>
    </contour>
  </outline>
</glyph>
<glyph name="z" format="1">
  <advance width="432"/>
  <unicode hex="007A"/>
  <outline>
    <contour>
      <point x="412" y="416" type="line"/>
      <point x="195" y="100" type="line" smooth="yes"/>
      <point x="191" y="94"/>
      <point x="184" y="87"/>
      <point x="184" y="87" type="curve"/>
      <point x="184" y="87"/>
      <point x="193" y="88"/>
      <point x="201" y="88" type="curve" smooth="yes"/>
      <point x="393" y="88" type="line"/>
      <point x="393" y="0" type="line"/>
      <point x="16" y="0" type="line"/>
      <point x="232" y="318" type="line" smooth="yes"/>
      <point x="236" y="324"/>
      <point x="242" y="329"/>
      <point x="242" y="329" type="curve"/>
      <point x="242" y="329"/>
      <point x="234" y="328"/>
      <point x="226" y="328" type="curve" smooth="yes"/>
      <point x="55" y="328" type="line"/>
      <point x="55" y="416" type="line"/>
    </contour>
  </outline>
</glyph>
<glyph name="braceleft" format="1">
  <advance width="320"/>
  <unicode hex="007B"/>
  <outline>
    <contour>
      <point x="279" y="-179" type="line"/>
      <point x="136" y="-133"/>
      <point x="110" y="-48"/>
      <point x="110" y="88" type="curve" smooth="yes"/>
      <point x="110" y="172"/>
      <point x="110" y="247"/>
      <point x="40" y="247" type="curve"/>
      <point x="40" y="323" type="line"/>
      <point x="110" y="323"/>
      <point x="110" y="398"/>
      <point x="110" y="482" type="curve" smooth="yes"/>
      <point x="110" y="618"/>
      <point x="136" y="703"/>
      <point x="279" y="749" type="curve"/>
      <point x="279" y="689" type="line"/>
      <point x="219" y="644"/>
      <point x="205" y="593"/>
      <point x="205" y="496" type="curve" smooth="yes"/>
      <point x="205" y="411"/>
      <point x="202" y="319"/>
      <point x="133" y="285" type="curve"/>
      <point x="202" y="251"/>
      <point x="205" y="159"/>
      <point x="205" y="74" type="curve" smooth="yes"/>
      <point x="205" y="-23"/>
      <point x="219" y="-74"/>
      <point x="279" y="-119" type="curve"/>
    </contour>
  </outline>
</glyph>
<glyph name="braceright" format="1">
  <advance width="320"/>
  <unicode hex="007D"/>
  <outline>
    <contour>
      <point x="280" y="247" type="line"/>
      <point x="210" y="247"/>
      <point x="210" y="172"/>
      <point x="210" y="88" type="curve" smooth="yes"/>
      <point x="210" y="-48"/>
      <point x="184" y="-133"/>
      <point x="41" y="-179" type="curve"/>
      <point x="41" y="-119" type="line"/>
      <point x="101" y="-74"/>
      <point x="115" y="-23"/>
      <point x="115" y="74" type="curve" smooth="yes"/>
      <point x="115" y="159"/>
      <point x="118" y="251"/>
      <point x="187" y="285" type="curve"/>
      <point x="118" y="319"/>
      <point x="115" y="411"/>
      <point x="115" y="496" type="curve" smooth="yes"/>
      <point x="115" y="593"/>
      <point x="101" y="644"/>
      <point x="41" y="689" type="curve"/>
      <point x="41" y="749" type="line"/>
      <point x="184" y="703"/>
      <point x="210" y="618"/>
      <point x="210" y="482" type="curve" smooth="yes"/>
      <point x="210" y="398"/>
      <point x="210" y="323"/>
      <point x="280" y="323" type="curve"/>
    </contour>
  </outline>
</glyph>
<glyph name="asciitilde" format="1">
  <advance width="500"/>
  <unicode hex="007E"/>
  <outline>
    <contour>
      <point x="460" y="449" type="line"/>
      <point x="450" y="355"/>
      <point x="429" y="282"/>
      <point x="337" y="282" type="curve" smooth="yes"/>
      <point x="298" y="282"/>
      <point x="260" y="306"/>
      <point x="236" y="325" type="curve" smooth="yes"/>
      <point x="202" y="352"/>
      <point x="189" y="362"/>
      <point x="167" y="362" type="curve" smooth="yes"/>
      <point x="146" y="362"/>
      <point x="136" y="324"/>
      <point x="134" y="285" type="curve"/>
      <point x="40" y="285" type="line"/>
      <point x="50" y="379"/>
      <point x="67" y="451"/>
      <point x="163" y="451" type="curve" smooth="yes"/>
      <point x="201" y="451"/>
      <point x="239" y="427"/>
      <point x="264" y="408" type="curve" smooth="yes"/>
      <point x="291" y="387"/>
      <point x="312" y="371"/>
      <point x="333" y="371" type="curve" smooth="yes"/>
      <point x="354" y="371"/>
      <point x="364" y="409"/>
      <point x="366" y="449" type="curve"/>
    </contour>
  </outline>
</glyph>
<glyph name="exclamdown" format="1">
  <advance width="213"/>
  <unicode hex="00A1"/>
  <outline>
    <contour>
      <point x="156" y="620" type="line"/>
      <point x="51" y="620" type="line"/>
      <point x="51" y="730" type="line"/>
      <point x="156" y="730" type="line"/>
    </contour>
    <contour>
      <point x="156" y="0" type="line"/>
      <point x="51" y="0" type="line"/>
      <point x="51" y="295" type="line"/>
      <point x="71" y="574" type="line"/>
      <point x="136" y="574" type="line"/>
      <point x="156" y="295" type="line"/>
    </contour>
  </outline>
</glyph>
<glyph name="cent" format="1">
  <advance width="460"/>
  <unicode hex="00A2"/>
  <outline>
    <contour>
      <point x="438" y="89" type="line"/>
      <point x="402" y="40"/>
      <point x="341" y="-4"/>
      <point x="272" y="-11" type="curve"/>
      <point x="272" y="-79" type="line"/>
      <point x="217" y="-79" type="line"/>
      <point x="217" y="-10" type="line"/>
      <point x="96" y="5"/>
      <point x="35" y="97"/>
      <point x="35" y="208" type="curve" smooth="yes"/>
      <point x="35" y="315"/>
      <point x="106" y="412"/>
      <point x="217" y="426" type="curve"/>
      <point x="217" y="495" type="line"/>
      <point x="272" y="495" type="line"/>
      <point x="272" y="426" type="line"/>
      <point x="352" y="417"/>
      <point x="405" y="369"/>
      <point x="430" y="331" type="curve"/>
      <point x="361" y="279" type="line"/>
      <point x="342" y="303"/>
      <point x="315" y="331"/>
      <point x="272" y="339" type="curve"/>
      <point x="272" y="75" type="line"/>
      <point x="312" y="82"/>
      <point x="345" y="107"/>
      <point x="373" y="141" type="curve"/>
    </contour>
    <contour>
      <point x="217" y="78" type="curve"/>
      <point x="217" y="338" type="line"/>
      <point x="162" y="324"/>
      <point x="130" y="269"/>
      <point x="130" y="212" type="curve" smooth="yes"/>
      <point x="130" y="137"/>
      <point x="164" y="91"/>
    </contour>
  </outline>
</glyph>
<glyph name="sterling" format="1">
  <advance width="600"/>
  <unicode hex="00A3"/>
  <outline>
    <contour>
      <point x="561" y="175" type="line"/>
      <point x="567" y="99"/>
      <point x="551" y="-12"/>
      <point x="425" y="-12" type="curve" smooth="yes"/>
      <point x="378" y="-12"/>
      <point x="323" y="17"/>
      <point x="293" y="39" type="curve"/>
      <point x="257" y="7"/>
      <point x="206" y="-12"/>
      <point x="147" y="-12" type="curve" smooth="yes"/>
      <point x="83" y="-12"/>
      <point x="25" y="20"/>
      <point x="25" y="85" type="curve" smooth="yes"/>
      <point x="25" y="145"/>
      <point x="83" y="176"/>
      <point x="152" y="176" type="curve" smooth="yes"/>
      <point x="195" y="176"/>
      <point x="232" y="166"/>
      <point x="265" y="152" type="curve"/>
      <point x="267" y="161"/>
      <point x="269" y="174"/>
      <point x="269" y="183" type="curve" smooth="yes"/>
      <point x="269" y="203"/>
      <point x="266" y="223"/>
      <point x="257" y="241" type="curve"/>
      <point x="71" y="241" type="line"/>
      <point x="71" y="289" type="line"/>
      <point x="231" y="289" type="line"/>
      <point x="223" y="302"/>
      <point x="213" y="316"/>
      <point x="202" y="329" type="curve"/>
      <point x="71" y="329" type="line"/>
      <point x="71" y="376" type="line"/>
      <point x="165" y="376" type="line"/>
      <point x="129" y="428"/>
      <point x="95" y="474"/>
      <point x="95" y="539" type="curve" smooth="yes"/>
      <point x="95" y="655"/>
      <point x="187" y="742"/>
      <point x="328" y="742" type="curve" smooth="yes"/>
      <point x="473" y="742"/>
      <point x="564" y="664"/>
      <point x="555" y="541" type="curve"/>
      <point x="451" y="541" type="line"/>
      <point x="456" y="599"/>
      <point x="418" y="651"/>
      <point x="330" y="651" type="curve" smooth="yes"/>
      <point x="262" y="651"/>
      <point x="201" y="616"/>
      <point x="201" y="540" type="curve" smooth="yes"/>
      <point x="201" y="474"/>
      <point x="240" y="431"/>
      <point x="281" y="376" type="curve"/>
      <point x="478" y="376" type="line"/>
      <point x="478" y="329" type="line"/>
      <point x="313" y="329" type="line"/>
      <point x="321" y="316"/>
      <point x="328" y="302"/>
      <point x="335" y="289" type="curve"/>
      <point x="478" y="289" type="line"/>
      <point x="478" y="241" type="line"/>
      <point x="352" y="241" type="line"/>
      <point x="356" y="225"/>
      <point x="360" y="208"/>
      <point x="360" y="189" type="curve" smooth="yes"/>
      <point x="360" y="162"/>
      <point x="355" y="135"/>
      <point x="346" y="111" type="curve"/>
      <point x="358" y="102"/>
      <point x="397" y="86"/>
      <point x="419" y="86" type="curve" smooth="yes"/>
      <point x="466" y="86"/>
      <point x="468" y="138"/>
      <point x="468" y="175" type="curve"/>
    </contour>
    <contour>
      <point x="225" y="84" type="curve"/>
      <point x="215" y="94"/>
      <point x="177" y="109"/>
      <point x="154" y="109" type="curve" smooth="yes"/>
      <point x="121" y="109"/>
      <point x="104" y="100"/>
      <point x="104" y="80" type="curve" smooth="yes"/>
      <point x="104" y="57"/>
      <point x="130" y="53"/>
      <point x="149" y="53" type="curve" smooth="yes"/>
      <point x="176" y="53"/>
      <point x="205" y="66"/>
    </contour>
  </outline>
</glyph>
<glyph name="yen" format="1">
  <advance width="615"/>
  <unicode hex="00A5"/>
  <outline>
    <contour>
      <point x="610" y="730" type="line"/>
      <point x="356" y="339" type="line"/>
      <point x="356" y="271" type="line"/>
      <point x="520" y="271" type="line"/>
      <point x="520" y="224" type="line"/>
      <point x="356" y="224" type="line"/>
      <point x="356" y="164" type="line"/>
      <point x="520" y="164" type="line"/>
      <point x="520" y="116" type="line"/>
      <point x="356" y="116" type="line"/>
      <point x="356" y="0" type="line"/>
      <point x="256" y="0" type="line"/>
      <point x="256" y="116" type="line"/>
      <point x="92" y="116" type="line"/>
      <point x="92" y="164" type="line"/>
      <point x="256" y="164" type="line"/>
      <point x="256" y="224" type="line"/>
      <point x="92" y="224" type="line"/>
      <point x="92" y="271" type="line"/>
      <point x="256" y="271" type="line"/>
      <point x="256" y="339" type="line"/>
      <point x="5" y="730" type="line"/>
      <point x="120" y="730" type="line"/>
      <point x="307" y="440" type="line"/>
      <point x="495" y="730" type="line"/>
    </contour>
  </outline>
</glyph>
<glyph name="brokenbar" format="1">
  <advance width="243"/>
  <unicode hex="00A6"/>
  <outline>
    <contour>
      <point x="75" y="351" type="line"/>
      <point x="75" y="730" type="line"/>
      <point x="168" y="730" type="line"/>
      <point x="168" y="351" type="line"/>
    </contour>
    <contour>
      <point x="168" y="200" type="line"/>
      <point x="168" y="-179" type="line"/>
      <point x="75" y="-179" type="line"/>
      <point x="75" y="200" type="line"/>
    </contour>
  </outline>
</glyph>
<glyph name="section" format="1">
  <advance width="676"/>
  <unicode hex="00A7"/>
  <outline>
    <contour>
      <point x="641" y="250" type="curve" smooth="yes"/>
      <point x="641" y="185"/>
      <point x="598" y="114"/>
      <point x="535" y="71" type="curve"/>
      <point x="558" y="46"/>
      <point x="571" y="12"/>
      <point x="571" y="-27" type="curve" smooth="yes"/>
      <point x="571" y="-141"/>
      <point x="485" y="-179"/>
      <point x="342" y="-179" type="curve" smooth="yes"/>
      <point x="248" y="-179"/>
      <point x="142" y="-149"/>
      <point x="75" y="-103" type="curve"/>
      <point x="124" y="-28" type="line"/>
      <point x="172" y="-57"/>
      <point x="250" y="-89"/>
      <point x="345" y="-89" type="curve" smooth="yes"/>
      <point x="433" y="-89"/>
      <point x="465" y="-70"/>
      <point x="465" y="-35" type="curve" smooth="yes"/>
      <point x="465" y="0"/>
      <point x="437" y="22"/>
      <point x="392" y="39" type="curve" smooth="yes"/>
      <point x="172" y="124" type="line" smooth="yes"/>
      <point x="72" y="163"/>
      <point x="35" y="223"/>
      <point x="35" y="313" type="curve" smooth="yes"/>
      <point x="35" y="378"/>
      <point x="78" y="449"/>
      <point x="140" y="492" type="curve"/>
      <point x="118" y="517"/>
      <point x="105" y="551"/>
      <point x="105" y="590" type="curve" smooth="yes"/>
      <point x="105" y="704"/>
      <point x="194" y="742"/>
      <point x="334" y="742" type="curve" smooth="yes"/>
      <point x="438" y="742"/>
      <point x="534" y="712"/>
      <point x="601" y="666" type="curve"/>
      <point x="552" y="591" type="line"/>
      <point x="504" y="620"/>
      <point x="433" y="652"/>
      <point x="331" y="652" type="curve" smooth="yes"/>
      <point x="243" y="652"/>
      <point x="211" y="633"/>
      <point x="211" y="598" type="curve" smooth="yes"/>
      <point x="211" y="563"/>
      <point x="239" y="541"/>
      <point x="284" y="524" type="curve" smooth="yes"/>
      <point x="504" y="439" type="line" smooth="yes"/>
      <point x="604" y="400"/>
      <point x="641" y="340"/>
    </contour>
    <contour>
      <point x="536" y="249" type="curve" smooth="yes"/>
      <point x="536" y="296"/>
      <point x="518" y="326"/>
      <point x="441" y="356" type="curve" smooth="yes"/>
      <point x="214" y="445" type="line"/>
      <point x="168" y="415"/>
      <point x="140" y="374"/>
      <point x="140" y="314" type="curve" smooth="yes"/>
      <point x="140" y="267"/>
      <point x="158" y="237"/>
      <point x="235" y="207" type="curve" smooth="yes"/>
      <point x="462" y="118" type="line"/>
      <point x="508" y="148"/>
      <point x="536" y="189"/>
    </contour>
  </outline>
</glyph>
<glyph name="dieresis" format="1">
  <advance width="500"/>
  <unicode hex="00A8"/>
  <outline>
    <contour>
      <point x="375" y="493" type="line"/>
      <point x="284" y="493" type="line"/>
      <point x="284" y="604" type="line"/>
      <point x="375" y="604" type="line"/>
    </contour>
    <contour>
      <point x="216" y="493" type="line"/>
      <point x="125" y="493" type="line"/>
      <point x="125" y="604" type="line"/>
      <point x="216" y="604" type="line"/>
    </contour>
  </outline>
</glyph>
<glyph name="ordfeminine" format="1">
  <advance width="441"/>
  <unicode hex="00AA"/>
  <outline>
    <contour>
      <point x="367" y="400" type="line"/>
      <point x="291" y="400" type="line"/>
      <point x="291" y="424" type="line"/>
      <point x="261" y="401"/>
      <point x="227" y="390"/>
      <point x="187" y="390" type="curve" smooth="yes"/>
      <point x="103" y="390"/>
      <point x="63" y="441"/>
      <point x="63" y="502" type="curve" smooth="yes"/>
      <point x="63" y="581"/>
      <point x="141" y="624"/>
      <point x="243" y="624" type="curve" smooth="yes"/>
      <point x="293" y="624" type="line"/>
      <point x="293" y="664"/>
      <point x="276" y="678"/>
      <point x="227" y="678" type="curve" smooth="yes"/>
      <point x="185" y="678"/>
      <point x="153" y="673"/>
      <point x="124" y="660" type="curve"/>
      <point x="98" y="717" type="line"/>
      <point x="129" y="735"/>
      <point x="181" y="742"/>
      <point x="218" y="742" type="curve" smooth="yes"/>
      <point x="311" y="742"/>
      <point x="367" y="715"/>
      <point x="367" y="643" type="curve" smooth="yes"/>
    </contour>
    <contour>
      <point x="367" y="270" type="line"/>
      <point x="63" y="270" type="line"/>
      <point x="63" y="336" type="line"/>
      <point x="367" y="336" type="line"/>
    </contour>
    <contour>
      <point x="291" y="484" type="curve"/>
      <point x="291" y="562" type="line"/>
      <point x="270" y="562" type="line" smooth="yes"/>
      <point x="183" y="562"/>
      <point x="140" y="545"/>
      <point x="140" y="502" type="curve" smooth="yes"/>
      <point x="140" y="470"/>
      <point x="176" y="457"/>
      <point x="208" y="457" type="curve" smooth="yes"/>
      <point x="242" y="457"/>
      <point x="261" y="463"/>
    </contour>
  </outline>
</glyph>
<glyph name="guillemotleft" format="1">
  <advance width="369"/>
  <unicode hex="00AB"/>
  <outline>
    <contour>
      <point x="326" y="42" type="line"/>
      <point x="184" y="167" type="line"/>
      <point x="184" y="242" type="line"/>
      <point x="326" y="365" type="line"/>
      <point x="326" y="265" type="line"/>
      <point x="255" y="205" type="line"/>
      <point x="326" y="144" type="line"/>
    </contour>
    <contour>
      <point x="171" y="42" type="line"/>
      <point x="30" y="167" type="line"/>
      <point x="30" y="242" type="line"/>
      <point x="171" y="365" type="line"/>
      <point x="171" y="265" type="line"/>
      <point x="100" y="205" type="line"/>
      <point x="171" y="144" type="line"/>
    </contour>
  </outline>
</glyph>
<glyph name="degree" format="1">
  <advance width="436"/>
  <unicode hex="00B0"/>
  <outline>
    <contour>
      <point x="406" y="554" type="curve" smooth="yes"/>
      <point x="406" y="450"/>
      <point x="322" y="366"/>
      <point x="218" y="366" type="curve" smooth="yes"/>
      <point x="114" y="366"/>
      <point x="30" y="450"/>
      <point x="30" y="554" type="curve" smooth="yes"/>
      <point x="30" y="658"/>
      <point x="114" y="742"/>
      <point x="218" y="742" type="curve" smooth="yes"/>
      <point x="322" y="742"/>
      <point x="406" y="658"/>
    </contour>
    <contour>
      <point x="325" y="554" type="curve" smooth="yes"/>
      <point x="325" y="613"/>
      <point x="277" y="661"/>
      <point x="218" y="661" type="curve" smooth="yes"/>
      <point x="159" y="661"/>
      <point x="111" y="613"/>
      <point x="111" y="554" type="curve" smooth="yes"/>
      <point x="111" y="495"/>
      <point x="159" y="447"/>
      <point x="218" y="447" type="curve" smooth="yes"/>
      <point x="277" y="447"/>
      <point x="325" y="495"/>
    </contour>
  </outline>
</glyph>
<glyph name="twosuperior" format="1">
  <advance width="448"/>
  <unicode hex="00B2"/>
  <outline>
    <contour>
      <point x="379" y="390" type="line"/>
      <point x="379" y="307" type="line"/>
      <point x="65" y="307" type="line"/>
      <point x="246" y="511" type="line" smooth="yes"/>
      <point x="281" y="551"/>
      <point x="284" y="576"/>
      <point x="284" y="590" type="curve" smooth="yes"/>
      <point x="284" y="643"/>
      <point x="241" y="658"/>
      <point x="216" y="658" type="curve" smooth="yes"/>
      <point x="166" y="658"/>
      <point x="145" y="625"/>
      <point x="144" y="587" type="curve"/>
      <point x="60" y="587" type="line"/>
      <point x="60" y="660"/>
      <point x="110" y="740"/>
      <point x="216" y="740" type="curve" smooth="yes"/>
      <point x="318" y="740"/>
      <point x="370" y="672"/>
      <point x="370" y="592" type="curve" smooth="yes"/>
      <point x="370" y="565"/>
      <point x="362" y="532"/>
      <point x="334" y="499" type="curve" smooth="yes"/>
      <point x="243" y="390" type="line"/>
    </contour>
  </outline>
</glyph>
<glyph name="paragraph" format="1">
  <advance width="720"/>
  <unicode hex="00B6"/>
  <outline>
    <contour>
      <point x="645" y="-179" type="line"/>
      <point x="552" y="-179" type="line"/>
      <point x="552" y="641" type="line"/>
      <point x="468" y="641" type="line"/>
      <point x="468" y="-179" type="line"/>
      <point x="375" y="-179" type="line"/>
      <point x="375" y="247" type="line"/>
      <point x="266" y="247" type="line" smooth="yes"/>
      <point x="142" y="247"/>
      <point x="27" y="357"/>
      <point x="27" y="485" type="curve" smooth="yes"/>
      <point x="27" y="624"/>
      <point x="131" y="730"/>
      <point x="286" y="730" type="curve" smooth="yes"/>
      <point x="645" y="730" type="line"/>
    </contour>
    <contour>
      <point x="375" y="336" type="line"/>
      <point x="375" y="641" type="line"/>
      <point x="291" y="641" type="line" smooth="yes"/>
      <point x="194" y="641"/>
      <point x="129" y="579"/>
      <point x="129" y="491" type="curve" smooth="yes"/>
      <point x="129" y="400"/>
      <point x="197" y="336"/>
      <point x="285" y="336" type="curve" smooth="yes"/>
    </contour>
  </outline>
</glyph>
<glyph name="periodcentered" format="1">
  <advance width="195"/>
  <unicode hex="00B7"/>
  <outline>
    <contour>
      <point x="150" y="306" type="line"/>
      <point x="45" y="306" type="line"/>
      <point x="45" y="416" type="line"/>
      <point x="150" y="416" type="line"/>
    </contour>
  </outline>
</glyph>
<glyph name="cedilla" format="1">
  <advance width="500"/>
  <unicode hex="00B8"/>
  <outline>
    <contour>
      <point x="350" y="-101" type="curve" smooth="yes"/>
      <point x="350" y="-155"/>
      <point x="290" y="-179"/>
      <point x="235" y="-179" type="curve" smooth="yes"/>
      <point x="194" y="-179"/>
      <point x="164" y="-166"/>
      <point x="136" y="-147" type="curve"/>
      <point x="163" y="-115" type="line"/>
      <point x="184" y="-131"/>
      <point x="209" y="-136"/>
      <point x="235" y="-136" type="curve" smooth="yes"/>
      <point x="254" y="-136"/>
      <point x="273" y="-127"/>
      <point x="273" y="-107" type="curve" smooth="yes"/>
      <point x="273" y="-88"/>
      <point x="252" y="-81"/>
      <point x="233" y="-81" type="curve" smooth="yes"/>
      <point x="219" y="-81"/>
      <point x="212" y="-82"/>
      <point x="200" y="-86" type="curve"/>
      <point x="179" y="-64" type="line"/>
      <point x="243" y="14" type="line"/>
      <point x="309" y="14" type="line"/>
      <point x="264" y="-43" type="line"/>
      <point x="316" y="-43"/>
      <point x="350" y="-64"/>
    </contour>
  </outline>
</glyph>
<glyph name="ordmasculine" format="1">
  <advance width="476"/>
  <unicode hex="00BA"/>
  <outline>
    <contour>
      <point x="408" y="572" type="curve" smooth="yes"/>
      <point x="408" y="471"/>
      <point x="338" y="390"/>
      <point x="237" y="390" type="curve" smooth="yes"/>
      <point x="138" y="390"/>
      <point x="67" y="460"/>
      <point x="67" y="569" type="curve" smooth="yes"/>
      <point x="67" y="658"/>
      <point x="131" y="742"/>
      <point x="235" y="742" type="curve" smooth="yes"/>
      <point x="339" y="742"/>
      <point x="408" y="662"/>
    </contour>
    <contour>
      <point x="408" y="270" type="line"/>
      <point x="67" y="270" type="line"/>
      <point x="67" y="336" type="line"/>
      <point x="408" y="336" type="line"/>
    </contour>
    <contour>
      <point x="330" y="567" type="curve" smooth="yes"/>
      <point x="330" y="632"/>
      <point x="294" y="672"/>
      <point x="235" y="672" type="curve" smooth="yes"/>
      <point x="178" y="672"/>
      <point x="145" y="625"/>
      <point x="145" y="569" type="curve" smooth="yes"/>
      <point x="145" y="502"/>
      <point x="178" y="461"/>
      <point x="234" y="461" type="curve" smooth="yes"/>
      <point x="302" y="461"/>
      <point x="330" y="507"/>
    </contour>
  </outline>
</glyph>
<glyph name="guillemotright" format="1">
  <advance width="369"/>
  <unicode hex="00BB"/>
  <outline>
    <contour>
      <point x="339" y="167" type="line"/>
      <point x="197" y="42" type="line"/>
      <point x="197" y="144" type="line"/>
      <point x="268" y="205" type="line"/>
      <point x="197" y="265" type="line"/>
      <point x="197" y="365" type="line"/>
      <point x="339" y="242" type="line"/>
    </contour>
    <contour>
      <point x="184" y="167" type="line"/>
      <point x="42" y="42" type="line"/>
      <point x="42" y="144" type="line"/>
      <point x="113" y="205" type="line"/>
      <point x="42" y="265" type="line"/>
      <point x="42" y="365" type="line"/>
      <point x="184" y="242" type="line"/>
    </contour>
  </outline>
</glyph>
<glyph name="onequarter" format="1">
  <advance width="884"/>
  <unicode hex="00BC"/>
  <outline>
    <contour>
      <point x="130" y="307" type="line"/>
      <point x="130" y="607" type="line"/>
      <point x="120" y="594"/>
      <point x="84" y="581"/>
      <point x="56" y="577" type="curve"/>
      <point x="56" y="664" type="line"/>
      <point x="103" y="671"/>
      <point x="129" y="690"/>
      <point x="152" y="729" type="curve"/>
      <point x="212" y="729" type="line"/>
      <point x="212" y="307" type="line"/>
    </contour>
    <contour>
      <point x="707" y="730" type="line"/>
      <point x="208" y="0" type="line"/>
      <point x="119" y="0" type="line"/>
      <point x="618" y="730" type="line"/>
    </contour>
    <contour>
      <point x="829" y="86" type="line"/>
      <point x="778" y="86" type="line"/>
      <point x="778" y="0" type="line"/>
      <point x="696" y="0" type="line"/>
      <point x="696" y="86" type="line"/>
      <point x="504" y="86" type="line"/>
      <point x="504" y="151" type="line"/>
      <point x="680" y="405" type="line"/>
      <point x="778" y="405" type="line"/>
      <point x="778" y="161" type="line"/>
      <point x="829" y="161" type="line"/>
    </contour>
    <contour>
      <point x="696" y="161" type="line"/>
      <point x="696" y="312" type="line"/>
      <point x="696" y="312"/>
      <point x="691" y="304"/>
      <point x="688" y="299" type="curve" smooth="yes"/>
      <point x="591" y="161" type="line"/>
    </contour>
  </outline>
</glyph>
<glyph name="onehalf" format="1">
  <advance width="934"/>
  <unicode hex="00BD"/>
  <outline>
    <contour>
      <point x="130" y="307" type="line"/>
      <point x="130" y="607" type="line"/>
      <point x="120" y="594"/>
      <point x="84" y="581"/>
      <point x="56" y="577" type="curve"/>
      <point x="56" y="664" type="line"/>
      <point x="103" y="671"/>
      <point x="129" y="690"/>
      <point x="152" y="729" type="curve"/>
      <point x="212" y="729" type="line"/>
      <point x="212" y="307" type="line"/>
    </contour>
    <contour>
      <point x="703" y="730" type="line"/>
      <point x="204" y="0" type="line"/>
      <point x="115" y="0" type="line"/>
      <point x="614" y="730" type="line"/>
    </contour>
    <contour>
      <point x="861" y="83" type="line"/>
      <point x="861" y="0" type="line"/>
      <point x="547" y="0" type="line"/>
      <point x="728" y="204" type="line" smooth="yes"/>
      <point x="763" y="244"/>
      <point x="766" y="269"/>
      <point x="766" y="283" type="curve" smooth="yes"/>
      <point x="766" y="336"/>
      <point x="723" y="351"/>
      <point x="698" y="351" type="curve" smooth="yes"/>
      <point x="648" y="351"/>
      <point x="627" y="318"/>
      <point x="626" y="280" type="curve"/>
      <point x="542" y="280" type="line"/>
      <point x="543" y="356"/>
      <point x="591" y="433"/>
      <point x="698" y="433" type="curve" smooth="yes"/>
      <point x="800" y="433"/>
      <point x="851" y="363"/>
      <point x="851" y="283" type="curve" smooth="yes"/>
      <point x="851" y="257"/>
      <point x="846" y="226"/>
      <point x="818" y="193" type="curve" smooth="yes"/>
      <point x="725" y="83" type="line"/>
    </contour>
  </outline>
</glyph>
<glyph name="questiondown" format="1">
  <advance width="441"/>
  <unicode hex="00BF"/>
  <outline>
    <contour>
      <point x="295" y="620" type="line"/>
      <point x="190" y="620" type="line"/>
      <point x="190" y="730" type="line"/>
      <point x="295" y="730" type="line"/>
    </contour>
    <contour>
      <point x="425" y="80" type="line"/>
      <point x="373" y="19"/>
      <point x="312" y="-12"/>
      <point x="230" y="-12" type="curve" smooth="yes"/>
      <point x="99" y="-12"/>
      <point x="27" y="72"/>
      <point x="27" y="187" type="curve" smooth="yes"/>
      <point x="27" y="280"/>
      <point x="79" y="334"/>
      <point x="125" y="396" type="curve" smooth="yes"/>
      <point x="163" y="447"/>
      <point x="194" y="499"/>
      <point x="194" y="571" type="curve"/>
      <point x="291" y="571" type="line"/>
      <point x="291" y="469"/>
      <point x="241" y="402"/>
      <point x="197" y="343" type="curve" smooth="yes"/>
      <point x="159" y="292"/>
      <point x="127" y="252"/>
      <point x="127" y="193" type="curve" smooth="yes"/>
      <point x="127" y="131"/>
      <point x="164" y="75"/>
      <point x="230" y="75" type="curve" smooth="yes"/>
      <point x="283" y="75"/>
      <point x="327" y="107"/>
      <point x="359" y="147" type="curve"/>
    </contour>
  </outline>
</glyph>
<glyph name="Adieresis" format="1">
  <advance width="676"/>
  <unicode hex="00C4"/>
  <outline>
    <contour>
      <point x="570" y="619" type="line"/>
      <point x="479" y="619" type="line"/>
      <point x="479" y="730" type="line"/>
      <point x="570" y="730" type="line"/>
    </contour>
    <contour>
      <point x="195" y="619" type="line"/>
      <point x="104" y="619" type="line"/>
      <point x="104" y="730" type="line"/>
      <point x="195" y="730" type="line"/>
    </contour>
    <component base="A"/>
  </outline>
</glyph>
<glyph name="Aring" format="1">
  <advance width="676"/>
  <unicode hex="00C5"/>
  <outline>
    <contour>
      <point x="651" y="0" type="line"/>
      <point x="540" y="0" type="line"/>
      <point x="452" y="236" type="line"/>
      <point x="219" y="236" type="line"/>
      <point x="131" y="0" type="line"/>
      <point x="25" y="0" type="line"/>
      <point x="288" y="685" type="line"/>
      <point x="249" y="703"/>
      <point x="223" y="741"/>
      <point x="223" y="787" type="curve" smooth="yes"/>
      <point x="223" y="850"/>
      <point x="273" y="900"/>
      <point x="336" y="900" type="curve" smooth="yes"/>
      <point x="399" y="900"/>
      <point x="449" y="850"/>
      <point x="449" y="787" type="curve" smooth="yes"/>
      <point x="449" y="742"/>
      <point x="424" y="704"/>
      <point x="386" y="686" type="curve"/>
    </contour>
    <contour>
      <point x="390" y="787" type="curve" smooth="yes"/>
      <point x="390" y="817"/>
      <point x="366" y="841"/>
      <point x="336" y="841" type="curve" smooth="yes"/>
      <point x="306" y="841"/>
      <point x="282" y="817"/>
      <point x="282" y="787" type="curve" smooth="yes"/>
      <point x="282" y="757"/>
      <point x="306" y="733"/>
      <point x="336" y="733" type="curve" smooth="yes"/>
      <point x="366" y="733"/>
      <point x="390" y="757"/>
    </contour>
    <contour>
      <point x="417" y="330" type="line"/>
      <point x="341" y="534" type="line" smooth="yes"/>
      <point x="338" y="542"/>
      <point x="335" y="554"/>
      <point x="335" y="554" type="curve"/>
      <point x="335" y="554"/>
      <point x="333" y="542"/>
      <point x="330" y="535" type="curve" smooth="yes"/>
      <point x="254" y="330" type="line"/>
    </contour>
  </outline>
</glyph>
<glyph name="AE" format="1">
  <advance width="979"/>
  <unicode hex="00C6"/>
  <outline>
    <contour>
      <point x="928" y="0" type="line"/>
      <point x="501" y="0" type="line"/>
      <point x="501" y="236" type="line"/>
      <point x="269" y="236" type="line"/>
      <point x="113" y="0" type="line"/>
      <point x="0" y="0" type="line"/>
      <point x="483" y="730" type="line"/>
      <point x="909" y="730" type="line"/>
      <point x="909" y="636" type="line"/>
      <point x="601" y="636" type="line"/>
      <point x="601" y="403" type="line"/>
      <point x="902" y="403" type="line"/>
      <point x="902" y="309" type="line"/>
      <point x="601" y="309" type="line"/>
      <point x="601" y="94" type="line"/>
      <point x="928" y="94" type="line"/>
    </contour>
    <contour>
      <point x="501" y="330" type="line"/>
      <point x="501" y="597" type="line"/>
      <point x="332" y="330" type="line"/>
    </contour>
  </outline>
</glyph>
<glyph name="Ccedilla" format="1">
  <advance width="730"/>
  <unicode hex="00C7"/>
  <outline>
    <contour>
      <point x="691" y="125" type="line"/>
      <point x="639" y="52"/>
      <point x="545" y="-4"/>
      <point x="428" y="-11" type="curve"/>
      <point x="403" y="-43" type="line"/>
      <point x="455" y="-43"/>
      <point x="489" y="-64"/>
      <point x="489" y="-101" type="curve" smooth="yes"/>
      <point x="489" y="-155"/>
      <point x="429" y="-179"/>
      <point x="374" y="-179" type="curve" smooth="yes"/>
      <point x="333" y="-179"/>
      <point x="303" y="-166"/>
      <point x="275" y="-147" type="curve"/>
      <point x="302" y="-115" type="line"/>
      <point x="323" y="-131"/>
      <point x="348" y="-136"/>
      <point x="374" y="-136" type="curve" smooth="yes"/>
      <point x="393" y="-136"/>
      <point x="412" y="-127"/>
      <point x="412" y="-107" type="curve" smooth="yes"/>
      <point x="412" y="-88"/>
      <point x="391" y="-81"/>
      <point x="372" y="-81" type="curve" smooth="yes"/>
      <point x="358" y="-81"/>
      <point x="351" y="-82"/>
      <point x="339" y="-86" type="curve"/>
      <point x="318" y="-64" type="line"/>
      <point x="363" y="-10" type="line"/>
      <point x="199" y="10"/>
      <point x="45" y="151"/>
      <point x="45" y="365" type="curve" smooth="yes"/>
      <point x="45" y="576"/>
      <point x="197" y="742"/>
      <point x="407" y="742" type="curve" smooth="yes"/>
      <point x="539" y="742"/>
      <point x="618" y="697"/>
      <point x="677" y="628" type="curve"/>
      <point x="603" y="562" type="line"/>
      <point x="553" y="614"/>
      <point x="489" y="644"/>
      <point x="409" y="644" type="curve" smooth="yes"/>
      <point x="267" y="644"/>
      <point x="149" y="534"/>
      <point x="149" y="367" type="curve" smooth="yes"/>
      <point x="149" y="179"/>
      <point x="293" y="86"/>
      <point x="405" y="86" type="curve" smooth="yes"/>
      <point x="475" y="86"/>
      <point x="557" y="114"/>
      <point x="619" y="187" type="curve"/>
    </contour>
  </outline>
</glyph>
<glyph name="Eth" format="1">
  <advance width="726"/>
  <unicode hex="00D0"/>
  <outline>
    <contour>
      <point x="681" y="367" type="curve" smooth="yes"/>
      <point x="681" y="164"/>
      <point x="532" y="0"/>
      <point x="282" y="0" type="curve" smooth="yes"/>
      <point x="105" y="0" type="line"/>
      <point x="105" y="309" type="line"/>
      <point x="35" y="309" type="line"/>
      <point x="35" y="403" type="line"/>
      <point x="105" y="403" type="line"/>
      <point x="105" y="730" type="line"/>
      <point x="291" y="730" type="line" smooth="yes"/>
      <point x="540" y="730"/>
      <point x="681" y="566"/>
    </contour>
    <contour>
      <point x="577" y="366" type="curve" smooth="yes"/>
      <point x="577" y="515"/>
      <point x="464" y="640"/>
      <point x="289" y="640" type="curve" smooth="yes"/>
      <point x="205" y="640" type="line"/>
      <point x="205" y="403" type="line"/>
      <point x="377" y="403" type="line"/>
      <point x="377" y="309" type="line"/>
      <point x="205" y="309" type="line"/>
      <point x="205" y="90" type="line"/>
      <point x="270" y="90" type="line" smooth="yes"/>
      <point x="486" y="90"/>
      <point x="577" y="230"/>
    </contour>
  </outline>
</glyph>
<glyph name="Odieresis" format="1">
  <advance width="838"/>
  <unicode hex="00D6"/>
  <outline>
    <contour>
      <point x="816" y="619" type="line"/>
      <point x="725" y="619" type="line"/>
      <point x="725" y="730" type="line"/>
      <point x="816" y="730" type="line"/>
    </contour>
    <contour>
      <point x="113" y="619" type="line"/>
      <point x="22" y="619" type="line"/>
      <point x="22" y="730" type="line"/>
      <point x="113" y="730" type="line"/>
    </contour>
    <component base="O"/>
  </outline>
</glyph>
<glyph name="multiply" format="1">
  <advance width="502"/>
  <unicode hex="00D7"/>
  <outline>
    <contour>
      <point x="42" y="188" type="line"/>
      <point x="185" y="330" type="line"/>
      <point x="44" y="471" type="line"/>
      <point x="110" y="538" type="line"/>
      <point x="251" y="397" type="line"/>
      <point x="393" y="538" type="line"/>
      <point x="459" y="471" type="line"/>
      <point x="317" y="330" type="line"/>
      <point x="459" y="188" type="line"/>
      <point x="393" y="121" type="line"/>
      <point x="251" y="263" type="line"/>
      <point x="108" y="121" type="line"/>
    </contour>
  </outline>
</glyph>
<glyph name="Oslash" format="1">
  <advance width="838"/>
  <unicode hex="00D8"/>
  <outline>
    <contour>
      <point x="793" y="365" type="curve" smooth="yes"/>
      <point x="793" y="153"/>
      <point x="626" y="-12"/>
      <point x="420" y="-12" type="curve" smooth="yes"/>
      <point x="324" y="-12"/>
      <point x="238" y="21"/>
      <point x="172" y="78" type="curve"/>
      <point x="94" y="0" type="line"/>
      <point x="43" y="48" type="line"/>
      <point x="124" y="129" type="line"/>
      <point x="74" y="193"/>
      <point x="45" y="275"/>
      <point x="45" y="367" type="curve" smooth="yes"/>
      <point x="45" y="580"/>
      <point x="204" y="742"/>
      <point x="415" y="742" type="curve" smooth="yes"/>
      <point x="511" y="742"/>
      <point x="593" y="712"/>
      <point x="656" y="662" type="curve"/>
      <point x="736" y="742" type="line"/>
      <point x="787" y="694" type="line"/>
      <point x="706" y="613" type="line"/>
      <point x="761" y="548"/>
      <point x="793" y="461"/>
    </contour>
    <contour>
      <point x="584" y="590" type="line"/>
      <point x="539" y="625"/>
      <point x="482" y="644"/>
      <point x="416" y="644" type="curve" smooth="yes"/>
      <point x="258" y="644"/>
      <point x="149" y="527"/>
      <point x="149" y="367" type="curve" smooth="yes"/>
      <point x="149" y="305"/>
      <point x="168" y="249"/>
      <point x="199" y="204" type="curve"/>
    </contour>
    <contour>
      <point x="689" y="369" type="curve" smooth="yes"/>
      <point x="689" y="435"/>
      <point x="669" y="495"/>
      <point x="634" y="541" type="curve"/>
      <point x="245" y="152" type="line"/>
      <point x="294" y="110"/>
      <point x="355" y="86"/>
      <point x="420" y="86" type="curve" smooth="yes"/>
      <point x="563" y="86"/>
      <point x="689" y="194"/>
    </contour>
  </outline>
</glyph>
<glyph name="Udieresis" format="1">
  <advance width="711"/>
  <unicode hex="00DC"/>
  <outline>
    <contour>
      <point x="479" y="619" type="line"/>
      <point x="388" y="619" type="line"/>
      <point x="388" y="730" type="line"/>
      <point x="479" y="730" type="line"/>
    </contour>
    <contour>
      <point x="325" y="619" type="line"/>
      <point x="234" y="619" type="line"/>
      <point x="234" y="730" type="line"/>
      <point x="325" y="730" type="line"/>
    </contour>
    <component base="U"/>
  </outline>
</glyph>
<glyph name="Thorn" format="1">
  <advance width="560"/>
  <unicode hex="00DE"/>
  <outline>
    <contour>
      <point x="533" y="369" type="curve" smooth="yes"/>
      <point x="533" y="253"/>
      <point x="431" y="151"/>
      <point x="313" y="151" type="curve" smooth="yes"/>
      <point x="175" y="151" type="line"/>
      <point x="175" y="0" type="line"/>
      <point x="75" y="0" type="line"/>
      <point x="75" y="730" type="line"/>
      <point x="175" y="730" type="line"/>
      <point x="175" y="594" type="line"/>
      <point x="294" y="594" type="line" smooth="yes"/>
      <point x="442" y="594"/>
      <point x="533" y="496"/>
    </contour>
    <contour>
      <point x="429" y="375" type="curve" smooth="yes"/>
      <point x="429" y="455"/>
      <point x="372" y="500"/>
      <point x="279" y="500" type="curve" smooth="yes"/>
      <point x="175" y="500" type="line"/>
      <point x="175" y="245" type="line"/>
      <point x="285" y="245" type="line" smooth="yes"/>
      <point x="369" y="245"/>
      <point x="429" y="292"/>
    </contour>
  </outline>
</glyph>
<glyph name="germandbls" format="1">
  <advance width="482"/>
  <unicode hex="00DF"/>
  <outline>
    <contour>
      <point x="447" y="190" type="curve" smooth="yes"/>
      <point x="447" y="73"/>
      <point x="379" y="-12"/>
      <point x="271" y="-12" type="curve" smooth="yes"/>
      <point x="249" y="-12"/>
      <point x="228" y="-8"/>
      <point x="207" y="0" type="curve"/>
      <point x="207" y="88" type="line"/>
      <point x="224" y="79"/>
      <point x="244" y="76"/>
      <point x="263" y="76" type="curve" smooth="yes"/>
      <point x="316" y="76"/>
      <point x="350" y="110"/>
      <point x="350" y="184" type="curve" smooth="yes"/>
      <point x="350" y="299"/>
      <point x="271" y="374"/>
      <point x="216" y="388" type="curve"/>
      <point x="216" y="454" type="line"/>
      <point x="224" y="454" type="line" smooth="yes"/>
      <point x="274" y="454"/>
      <point x="339" y="494"/>
      <point x="339" y="569" type="curve" smooth="yes"/>
      <point x="339" y="616"/>
      <point x="313" y="664"/>
      <point x="245" y="664" type="curve" smooth="yes"/>
      <point x="190" y="664"/>
      <point x="154" y="622"/>
      <point x="154" y="546" type="curve" smooth="yes"/>
      <point x="154" y="0" type="line"/>
      <point x="60" y="0" type="line"/>
      <point x="60" y="539" type="line" smooth="yes"/>
      <point x="60" y="664"/>
      <point x="122" y="742"/>
      <point x="245" y="742" type="curve" smooth="yes"/>
      <point x="366" y="742"/>
      <point x="431" y="675"/>
      <point x="431" y="575" type="curve" smooth="yes"/>
      <point x="431" y="501"/>
      <point x="393" y="440"/>
      <point x="322" y="416" type="curve"/>
      <point x="401" y="375"/>
      <point x="447" y="279"/>
    </contour>
  </outline>
</glyph>
<glyph name="ae" format="1">
  <advance width="764"/>
  <unicode hex="00E6"/>
  <outline>
    <contour>
      <point x="731" y="196" type="curve"/>
      <point x="412" y="196" type="line"/>
      <point x="412" y="131"/>
      <point x="459" y="73"/>
      <point x="532" y="73" type="curve" smooth="yes"/>
      <point x="597" y="73"/>
      <point x="634" y="93"/>
      <point x="668" y="124" type="curve"/>
      <point x="724" y="66" type="line"/>
      <point x="672" y="21"/>
      <point x="612" y="-12"/>
      <point x="531" y="-12" type="curve" smooth="yes"/>
      <point x="456" y="-12"/>
      <point x="405" y="19"/>
      <point x="366" y="76" type="curve"/>
      <point x="325" y="13"/>
      <point x="270" y="-12"/>
      <point x="186" y="-12" type="curve" smooth="yes"/>
      <point x="81" y="-12"/>
      <point x="30" y="51"/>
      <point x="30" y="128" type="curve" smooth="yes"/>
      <point x="30" y="218"/>
      <point x="118" y="268"/>
      <point x="246" y="268" type="curve" smooth="yes"/>
      <point x="320" y="268" type="line"/>
      <point x="320" y="318"/>
      <point x="297" y="348"/>
      <point x="235" y="348" type="curve" smooth="yes"/>
      <point x="183" y="348"/>
      <point x="143" y="341"/>
      <point x="107" y="325" type="curve"/>
      <point x="74" y="396" type="line"/>
      <point x="113" y="419"/>
      <point x="178" y="428"/>
      <point x="224" y="428" type="curve" smooth="yes"/>
      <point x="302" y="428"/>
      <point x="354" y="411"/>
      <point x="384" y="369" type="curve"/>
      <point x="418" y="404"/>
      <point x="470" y="428"/>
      <point x="527" y="428" type="curve" smooth="yes"/>
      <point x="652" y="428"/>
      <point x="731" y="331"/>
    </contour>
    <contour>
      <point x="628" y="268" type="line"/>
      <point x="613" y="316"/>
      <point x="576" y="343"/>
      <point x="523" y="343" type="curve" smooth="yes"/>
      <point x="469" y="343"/>
      <point x="427" y="314"/>
      <point x="416" y="268" type="curve"/>
    </contour>
    <contour>
      <point x="321" y="196" type="curve"/>
      <point x="279" y="196" type="line" smooth="yes"/>
      <point x="172" y="196"/>
      <point x="125" y="175"/>
      <point x="125" y="128" type="curve" smooth="yes"/>
      <point x="125" y="88"/>
      <point x="162" y="69"/>
      <point x="203" y="69" type="curve" smooth="yes"/>
      <point x="255" y="69"/>
      <point x="321" y="100"/>
    </contour>
  </outline>
</glyph>
<glyph name="ccedilla" format="1">
  <advance width="460"/>
  <unicode hex="00E7"/>
  <outline>
    <contour>
      <point x="438" y="89" type="line"/>
      <point x="404" y="41"/>
      <point x="345" y="-1"/>
      <point x="280" y="-10" type="curve"/>
      <point x="254" y="-43" type="line"/>
      <point x="306" y="-43"/>
      <point x="340" y="-64"/>
      <point x="340" y="-101" type="curve" smooth="yes"/>
      <point x="340" y="-155"/>
      <point x="280" y="-179"/>
      <point x="225" y="-179" type="curve" smooth="yes"/>
      <point x="184" y="-179"/>
      <point x="154" y="-166"/>
      <point x="126" y="-147" type="curve"/>
      <point x="153" y="-115" type="line"/>
      <point x="174" y="-131"/>
      <point x="199" y="-136"/>
      <point x="225" y="-136" type="curve" smooth="yes"/>
      <point x="244" y="-136"/>
      <point x="263" y="-127"/>
      <point x="263" y="-107" type="curve" smooth="yes"/>
      <point x="263" y="-88"/>
      <point x="242" y="-81"/>
      <point x="223" y="-81" type="curve" smooth="yes"/>
      <point x="209" y="-81"/>
      <point x="202" y="-82"/>
      <point x="190" y="-86" type="curve"/>
      <point x="169" y="-64" type="line"/>
      <point x="214" y="-9" type="line"/>
      <point x="95" y="7"/>
      <point x="35" y="97"/>
      <point x="35" y="208" type="curve" smooth="yes"/>
      <point x="35" y="324"/>
      <point x="118" y="428"/>
      <point x="245" y="428" type="curve" smooth="yes"/>
      <point x="340" y="428"/>
      <point x="402" y="373"/>
      <point x="430" y="331" type="curve"/>
      <point x="361" y="279" type="line"/>
      <point x="339" y="307"/>
      <point x="305" y="340"/>
      <point x="246" y="340" type="curve" smooth="yes"/>
      <point x="174" y="340"/>
      <point x="132" y="274"/>
      <point x="132" y="212" type="curve" smooth="yes"/>
      <point x="132" y="125"/>
      <point x="180" y="76"/>
      <point x="252" y="76" type="curve" smooth="yes"/>
      <point x="301" y="76"/>
      <point x="340" y="102"/>
      <point x="373" y="141" type="curve"/>
    </contour>
  </outline>
</glyph>
<glyph name="eth" format="1">
  <advance width="496"/>
  <unicode hex="00F0"/>
  <outline>
    <contour>
      <point x="461" y="212" type="curve" smooth="yes"/>
      <point x="461" y="109"/>
      <point x="398" y="-12"/>
      <point x="247" y="-12" type="curve" smooth="yes"/>
      <point x="124" y="-12"/>
      <point x="35" y="75"/>
      <point x="35" y="211" type="curve" smooth="yes"/>
      <point x="35" y="323"/>
      <point x="115" y="428"/>
      <point x="245" y="428" type="curve" smooth="yes"/>
      <point x="288" y="428"/>
      <point x="319" y="415"/>
      <point x="345" y="391" type="curve"/>
      <point x="336" y="440"/>
      <point x="309" y="497"/>
      <point x="274" y="554" type="curve"/>
      <point x="168" y="511" type="line"/>
      <point x="135" y="579" type="line"/>
      <point x="229" y="617" type="line"/>
      <point x="203" y="651"/>
      <point x="174" y="683"/>
      <point x="145" y="710" type="curve"/>
      <point x="185" y="749" type="line"/>
      <point x="229" y="720"/>
      <point x="267" y="685"/>
      <point x="300" y="646" type="curve"/>
      <point x="372" y="675" type="line"/>
      <point x="404" y="607" type="line"/>
      <point x="348" y="584" type="line"/>
      <point x="422" y="473"/>
      <point x="461" y="340"/>
    </contour>
    <contour>
      <point x="364" y="209" type="curve" smooth="yes"/>
      <point x="364" y="290"/>
      <point x="318" y="340"/>
      <point x="245" y="340" type="curve" smooth="yes"/>
      <point x="174" y="340"/>
      <point x="132" y="282"/>
      <point x="132" y="211" type="curve" smooth="yes"/>
      <point x="132" y="128"/>
      <point x="174" y="76"/>
      <point x="244" y="76" type="curve" smooth="yes"/>
      <point x="329" y="76"/>
      <point x="364" y="134"/>
    </contour>
  </outline>
</glyph>
<glyph name="oslash" format="1">
  <advance width="496"/>
  <unicode hex="00F8"/>
  <outline>
    <contour>
      <point x="473" y="387" type="line"/>
      <point x="423" y="338" type="line"/>
      <point x="448" y="303"/>
      <point x="461" y="260"/>
      <point x="461" y="215" type="curve" smooth="yes"/>
      <point x="461" y="89"/>
      <point x="374" y="-12"/>
      <point x="247" y="-12" type="curve" smooth="yes"/>
      <point x="195" y="-12"/>
      <point x="149" y="3"/>
      <point x="114" y="31" type="curve"/>
      <point x="70" y="-12" type="line"/>
      <point x="29" y="29" type="line"/>
      <point x="74" y="74" type="line"/>
      <point x="49" y="110"/>
      <point x="35" y="156"/>
      <point x="35" y="211" type="curve" smooth="yes"/>
      <point x="35" y="323"/>
      <point x="115" y="428"/>
      <point x="245" y="428" type="curve" smooth="yes"/>
      <point x="300" y="428"/>
      <point x="348" y="410"/>
      <point x="384" y="380" type="curve"/>
      <point x="432" y="428" type="line"/>
    </contour>
    <contour>
      <point x="319" y="317" type="line"/>
      <point x="300" y="332"/>
      <point x="275" y="340"/>
      <point x="245" y="340" type="curve" smooth="yes"/>
      <point x="174" y="340"/>
      <point x="132" y="282"/>
      <point x="132" y="211" type="curve" smooth="yes"/>
      <point x="132" y="185"/>
      <point x="136" y="162"/>
      <point x="144" y="143" type="curve"/>
    </contour>
    <contour>
      <point x="364" y="209" type="curve" smooth="yes"/>
      <point x="364" y="232"/>
      <point x="360" y="252"/>
      <point x="354" y="269" type="curve"/>
      <point x="179" y="96" type="line"/>
      <point x="196" y="83"/>
      <point x="218" y="76"/>
      <point x="244" y="76" type="curve" smooth="yes"/>
      <point x="329" y="76"/>
      <point x="364" y="134"/>
    </contour>
  </outline>
</glyph>
<glyph name="thorn" format="1">
  <advance width="492"/>
  <unicode hex="00FE"/>
  <outline>
    <contour>
      <point x="457" y="214" type="curve" smooth="yes"/>
      <point x="457" y="93"/>
      <point x="381" y="-12"/>
      <point x="273" y="-12" type="curve" smooth="yes"/>
      <point x="216" y="-12"/>
      <point x="176" y="20"/>
      <point x="155" y="50" type="curve"/>
      <point x="155" y="-179" type="line"/>
      <point x="60" y="-179" type="line"/>
      <point x="60" y="730" type="line"/>
      <point x="155" y="730" type="line"/>
      <point x="155" y="366" type="line"/>
      <point x="186" y="405"/>
      <point x="224" y="428"/>
      <point x="273" y="428" type="curve" smooth="yes"/>
      <point x="381" y="428"/>
      <point x="457" y="337"/>
    </contour>
    <contour>
      <point x="360" y="210" type="curve" smooth="yes"/>
      <point x="360" y="280"/>
      <point x="324" y="340"/>
      <point x="253" y="340" type="curve" smooth="yes"/>
      <point x="190" y="340"/>
      <point x="147" y="276"/>
      <point x="147" y="210" type="curve" smooth="yes"/>
      <point x="147" y="144"/>
      <point x="190" y="76"/>
      <point x="252" y="76" type="curve" smooth="yes"/>
      <point x="323" y="76"/>
      <point x="360" y="136"/>
    </contour>
  </outline>
</glyph>
<glyph name="Lslash" format="1">
  <advance width="509"/>
  <unicode hex="0141"/>
  <outline>
    <contour>
      <point x="482" y="0" type="line"/>
      <point x="105" y="0" type="line"/>
      <point x="105" y="290" type="line"/>
      <point x="56" y="270" type="line"/>
      <point x="19" y="352" type="line"/>
      <point x="105" y="387" type="line"/>
      <point x="105" y="730" type="line"/>
      <point x="205" y="730" type="line"/>
      <point x="205" y="427" type="line"/>
      <point x="356" y="488" type="line"/>
      <point x="392" y="406" type="line"/>
      <point x="205" y="330" type="line"/>
      <point x="205" y="94" type="line"/>
      <point x="482" y="94" type="line"/>
    </contour>
  </outline>
</glyph>
<glyph name="lslash" format="1">
  <advance width="279"/>
  <unicode hex="0142"/>
  <outline>
    <contour>
      <point x="274" y="370" type="line"/>
      <point x="182" y="333" type="line"/>
      <point x="182" y="0" type="line"/>
      <point x="87" y="0" type="line"/>
      <point x="87" y="294" type="line"/>
      <point x="38" y="274" type="line"/>
      <point x="5" y="347" type="line"/>
      <point x="87" y="380" type="line"/>
      <point x="87" y="730" type="line"/>
      <point x="182" y="730" type="line"/>
      <point x="182" y="419" type="line"/>
      <point x="242" y="443" type="line"/>
    </contour>
  </outline>
</glyph>
<glyph name="OE" format="1">
  <advance width="1165"/>
  <unicode hex="0152"/>
  <outline>
    <contour>
      <point x="1114" y="0" type="line"/>
      <point x="687" y="0" type="line"/>
      <point x="687" y="100" type="line"/>
      <point x="619" y="31"/>
      <point x="525" y="-12"/>
      <point x="420" y="-12" type="curve" smooth="yes"/>
      <point x="211" y="-12"/>
      <point x="45" y="147"/>
      <point x="45" y="367" type="curve" smooth="yes"/>
      <point x="45" y="580"/>
      <point x="204" y="742"/>
      <point x="415" y="742" type="curve" smooth="yes"/>
      <point x="527" y="742"/>
      <point x="621" y="702"/>
      <point x="687" y="635" type="curve"/>
      <point x="687" y="730" type="line"/>
      <point x="1095" y="730" type="line"/>
      <point x="1095" y="636" type="line"/>
      <point x="787" y="636" type="line"/>
      <point x="787" y="403" type="line"/>
      <point x="1088" y="403" type="line"/>
      <point x="1088" y="309" type="line"/>
      <point x="787" y="309" type="line"/>
      <point x="787" y="94" type="line"/>
      <point x="1114" y="94" type="line"/>
    </contour>
    <contour>
      <point x="689" y="369" type="curve" smooth="yes"/>
      <point x="689" y="527"/>
      <point x="577" y="644"/>
      <point x="416" y="644" type="curve" smooth="yes"/>
      <point x="258" y="644"/>
      <point x="149" y="527"/>
      <point x="149" y="367" type="curve" smooth="yes"/>
      <point x="149" y="205"/>
      <point x="276" y="86"/>
      <point x="420" y="86" type="curve" smooth="yes"/>
      <point x="563" y="86"/>
      <point x="689" y="194"/>
    </contour>
  </outline>
</glyph>
<glyph name="oe" format="1">
  <advance width="809"/>
  <unicode hex="0153"/>
  <outline>
    <contour>
      <point x="776" y="196" type="curve"/>
      <point x="457" y="196" type="line"/>
      <point x="457" y="127"/>
      <point x="504" y="73"/>
      <point x="577" y="73" type="curve" smooth="yes"/>
      <point x="642" y="73"/>
      <point x="676" y="94"/>
      <point x="714" y="123" type="curve"/>
      <point x="769" y="66" type="line"/>
      <point x="717" y="21"/>
      <point x="657" y="-12"/>
      <point x="576" y="-12" type="curve" smooth="yes"/>
      <point x="506" y="-12"/>
      <point x="446" y="20"/>
      <point x="411" y="71" type="curve"/>
      <point x="375" y="18"/>
      <point x="316" y="-12"/>
      <point x="247" y="-12" type="curve" smooth="yes"/>
      <point x="124" y="-12"/>
      <point x="35" y="75"/>
      <point x="35" y="211" type="curve" smooth="yes"/>
      <point x="35" y="323"/>
      <point x="115" y="428"/>
      <point x="245" y="428" type="curve" smooth="yes"/>
      <point x="316" y="428"/>
      <point x="374" y="399"/>
      <point x="411" y="348" type="curve"/>
      <point x="447" y="398"/>
      <point x="508" y="428"/>
      <point x="577" y="428" type="curve" smooth="yes"/>
      <point x="694" y="428"/>
      <point x="776" y="331"/>
    </contour>
    <contour>
      <point x="673" y="268" type="line"/>
      <point x="658" y="316"/>
      <point x="621" y="343"/>
      <point x="568" y="343" type="curve" smooth="yes"/>
      <point x="514" y="343"/>
      <point x="472" y="314"/>
      <point x="461" y="268" type="curve"/>
    </contour>
    <contour>
      <point x="364" y="209" type="curve" smooth="yes"/>
      <point x="364" y="290"/>
      <point x="318" y="340"/>
      <point x="245" y="340" type="curve" smooth="yes"/>
      <point x="174" y="340"/>
      <point x="132" y="282"/>
      <point x="132" y="211" type="curve" smooth="yes"/>
      <point x="132" y="128"/>
      <point x="174" y="76"/>
      <point x="244" y="76" type="curve" smooth="yes"/>
      <point x="329" y="76"/>
      <point x="364" y="134"/>
    </contour>
  </outline>
</glyph>
<glyph name="florin" format="1">
  <advance width="304"/>
  <unicode hex="0192"/>
  <outline>
    <contour>
      <point x="282" y="729" type="curve"/>
      <point x="275" y="646" type="line"/>
      <point x="275" y="646"/>
      <point x="259" y="650"/>
      <point x="247" y="648" type="curve" smooth="yes"/>
      <point x="227" y="645"/>
      <point x="212" y="634"/>
      <point x="209" y="602" type="curve" smooth="yes"/>
      <point x="193" y="416" type="line"/>
      <point x="258" y="416" type="line"/>
      <point x="250" y="328" type="line"/>
      <point x="185" y="328" type="line"/>
      <point x="149" y="-83" type="line" smooth="yes"/>
      <point x="143" y="-147"/>
      <point x="86" y="-179"/>
      <point x="34" y="-179" type="curve" smooth="yes"/>
      <point x="15" y="-179"/>
      <point x="3" y="-179"/>
      <point x="-16" y="-175" type="curve"/>
      <point x="-9" y="-92" type="line"/>
      <point x="-9" y="-92"/>
      <point x="7" y="-96"/>
      <point x="19" y="-94" type="curve" smooth="yes"/>
      <point x="39" y="-91"/>
      <point x="54" y="-80"/>
      <point x="57" y="-48" type="curve" smooth="yes"/>
      <point x="90" y="328" type="line"/>
      <point x="30" y="328" type="line"/>
      <point x="38" y="416" type="line"/>
      <point x="98" y="416" type="line"/>
      <point x="117" y="637" type="line" smooth="yes"/>
      <point x="123" y="701"/>
      <point x="181" y="733"/>
      <point x="233" y="733" type="curve" smooth="yes"/>
      <point x="252" y="733"/>
      <point x="264" y="733"/>
    </contour>
  </outline>
</glyph>
<glyph name="circumflex" format="1">
  <advance width="500"/>
  <unicode hex="02C6"/>
  <outline>
    <contour>
      <point x="397" y="493" type="line"/>
      <point x="302" y="493" type="line"/>
      <point x="249" y="576" type="line"/>
      <point x="196" y="493" type="line"/>
      <point x="103" y="493" type="line"/>
      <point x="206" y="640" type="line"/>
      <point x="294" y="640" type="line"/>
    </contour>
  </outline>
</glyph>
<glyph name="caron" format="1">
  <advance width="500"/>
  <unicode hex="02C7"/>
  <outline>
    <contour>
      <point x="395" y="640" type="line"/>
      <point x="292" y="493" type="line"/>
      <point x="204" y="493" type="line"/>
      <point x="101" y="640" type="line"/>
      <point x="196" y="640" type="line"/>
      <point x="249" y="557" type="line"/>
      <point x="302" y="640" type="line"/>
    </contour>
  </outline>
</glyph>
<glyph name="breve" format="1">
  <advance width="500"/>
  <unicode hex="02D8"/>
  <outline>
    <contour>
      <point x="398" y="635" type="line"/>
      <point x="390" y="539"/>
      <point x="331" y="488"/>
      <point x="250" y="488" type="curve" smooth="yes"/>
      <point x="169" y="488"/>
      <point x="110" y="539"/>
      <point x="102" y="635" type="curve"/>
      <point x="174" y="635" type="line"/>
      <point x="178" y="596"/>
      <point x="200" y="555"/>
      <point x="250" y="555" type="curve" smooth="yes"/>
      <point x="300" y="555"/>
      <point x="323" y="597"/>
      <point x="326" y="635" type="curve"/>
    </contour>
  </outline>
</glyph>
<glyph name="ring" format="1">
  <advance width="500"/>
  <unicode hex="02DA"/>
  <outline>
    <contour>
      <point x="363" y="599" type="curve" smooth="yes"/>
      <point x="363" y="536"/>
      <point x="313" y="486"/>
      <point x="250" y="486" type="curve" smooth="yes"/>
      <point x="187" y="486"/>
      <point x="137" y="536"/>
      <point x="137" y="599" type="curve" smooth="yes"/>
      <point x="137" y="662"/>
      <point x="187" y="712"/>
      <point x="250" y="712" type="curve" smooth="yes"/>
      <point x="313" y="712"/>
      <point x="363" y="662"/>
    </contour>
    <contour>
      <point x="304" y="599" type="curve" smooth="yes"/>
      <point x="304" y="629"/>
      <point x="280" y="653"/>
      <point x="250" y="653" type="curve" smooth="yes"/>
      <point x="220" y="653"/>
      <point x="196" y="629"/>
      <point x="196" y="599" type="curve" smooth="yes"/>
      <point x="196" y="569"/>
      <point x="220" y="545"/>
      <point x="250" y="545" type="curve" smooth="yes"/>
      <point x="280" y="545"/>
      <point x="304" y="569"/>
    </contour>
  </outline>
</glyph>
<glyph name="tilde" format="1">
  <advance width="500"/>
  <unicode hex="02DC"/>
  <outline>
    <contour>
      <point x="400" y="610" type="line"/>
      <point x="400" y="543"/>
      <point x="378" y="491"/>
      <point x="312" y="491" type="curve" smooth="yes"/>
      <point x="288" y="491"/>
      <point x="259" y="507"/>
      <point x="241" y="519" type="curve" smooth="yes"/>
      <point x="224" y="530"/>
      <point x="210" y="539"/>
      <point x="194" y="539" type="curve" smooth="yes"/>
      <point x="179" y="539"/>
      <point x="175" y="523"/>
      <point x="174" y="493" type="curve"/>
      <point x="100" y="493" type="line"/>
      <point x="100" y="560"/>
      <point x="119" y="612"/>
      <point x="188" y="612" type="curve" smooth="yes"/>
      <point x="211" y="612"/>
      <point x="241" y="596"/>
      <point x="259" y="584" type="curve" smooth="yes"/>
      <point x="275" y="573"/>
      <point x="290" y="564"/>
      <point x="306" y="564" type="curve" smooth="yes"/>
      <point x="321" y="564"/>
      <point x="325" y="579"/>
      <point x="326" y="610" type="curve"/>
    </contour>
  </outline>
</glyph>
<glyph name="hungarumlaut" format="1">
  <advance width="500"/>
  <unicode hex="02DD"/>
  <outline>
    <contour>
      <point x="414" y="640" type="line"/>
      <point x="321" y="493" type="line"/>
      <point x="230" y="493" type="line"/>
      <point x="323" y="640" type="line"/>
    </contour>
    <contour>
      <point x="270" y="640" type="line"/>
      <point x="177" y="493" type="line"/>
      <point x="86" y="493" type="line"/>
      <point x="179" y="640" type="line"/>
    </contour>
  </outline>
</glyph>
<glyph name="endash" format="1">
  <advance width="460"/>
  <unicode hex="2013"/>
  <outline>
    <contour>
      <point x="415" y="168" type="line"/>
      <point x="45" y="168" type="line"/>
      <point x="45" y="254" type="line"/>
      <point x="415" y="254" type="line"/>
    </contour>
  </outline>
</glyph>
<glyph name="emdash" format="1">
  <advance width="645"/>
  <unicode hex="2014"/>
  <outline>
    <contour>
      <point x="600" y="168" type="line"/>
      <point x="45" y="168" type="line"/>
      <point x="45" y="254" type="line"/>
      <point x="600" y="254" type="line"/>
    </contour>
  </outline>
</glyph>
<glyph name="quoteleft" format="1">
  <advance width="197"/>
  <unicode hex="2018"/>
  <unicode hex="02BB"/>
  <outline>
    <contour>
      <point x="171" y="730" type="line"/>
      <point x="162" y="711"/>
      <point x="144" y="666"/>
      <point x="144" y="624" type="curve" smooth="yes"/>
      <point x="144" y="513" type="line"/>
      <point x="39" y="513" type="line"/>
      <point x="39" y="577" type="line" smooth="yes"/>
      <point x="39" y="641"/>
      <point x="89" y="706"/>
      <point x="111" y="730" type="curve"/>
    </contour>
  </outline>
</glyph>
<glyph name="quoteright" format="1">
  <advance width="197"/>
  <unicode hex="2019"/>
  <unicode hex="02BC"/>
  <outline>
    <contour>
      <point x="158" y="666" type="line" smooth="yes"/>
      <point x="158" y="602"/>
      <point x="108" y="537"/>
      <point x="86" y="513" type="curve"/>
      <point x="26" y="513" type="line"/>
      <point x="35" y="532"/>
      <point x="53" y="577"/>
      <point x="53" y="619" type="curve" smooth="yes"/>
      <point x="53" y="730" type="line"/>
      <point x="158" y="730" type="line"/>
    </contour>
  </outline>
</glyph>
<glyph name="quotesinglbase" format="1">
  <advance width="197"/>
  <unicode hex="201A"/>
  <outline>
    <contour>
      <point x="155" y="46" type="line" smooth="yes"/>
      <point x="155" y="-18"/>
      <point x="105" y="-83"/>
      <point x="83" y="-107" type="curve"/>
      <point x="23" y="-107" type="line"/>
      <point x="32" y="-88"/>
      <point x="50" y="-43"/>
      <point x="50" y="-1" type="curve" smooth="yes"/>
      <point x="50" y="110" type="line"/>
      <point x="155" y="110" type="line"/>
    </contour>
  </outline>
</glyph>
<glyph name="quotedblleft" format="1">
  <advance width="341"/>
  <unicode hex="201C"/>
  <outline>
    <contour>
      <point x="315" y="730" type="line"/>
      <point x="306" y="711"/>
      <point x="288" y="666"/>
      <point x="288" y="624" type="curve" smooth="yes"/>
      <point x="288" y="513" type="line"/>
      <point x="183" y="513" type="line"/>
      <point x="183" y="577" type="line" smooth="yes"/>
      <point x="183" y="641"/>
      <point x="233" y="706"/>
      <point x="255" y="730" type="curve"/>
    </contour>
    <contour>
      <point x="169" y="730" type="line"/>
      <point x="160" y="711"/>
      <point x="142" y="666"/>
      <point x="142" y="624" type="curve" smooth="yes"/>
      <point x="142" y="513" type="line"/>
      <point x="37" y="513" type="line"/>
      <point x="37" y="577" type="line" smooth="yes"/>
      <point x="37" y="641"/>
      <point x="87" y="706"/>
      <point x="109" y="730" type="curve"/>
    </contour>
  </outline>
</glyph>
<glyph name="quotedblright" format="1">
  <advance width="341"/>
  <unicode hex="201D"/>
  <outline>
    <contour>
      <point x="305" y="666" type="line" smooth="yes"/>
      <point x="305" y="602"/>
      <point x="255" y="537"/>
      <point x="233" y="513" type="curve"/>
      <point x="173" y="513" type="line"/>
      <point x="182" y="532"/>
      <point x="200" y="577"/>
      <point x="200" y="619" type="curve" smooth="yes"/>
      <point x="200" y="730" type="line"/>
      <point x="305" y="730" type="line"/>
    </contour>
    <contour>
      <point x="159" y="666" type="line" smooth="yes"/>
      <point x="159" y="602"/>
      <point x="109" y="537"/>
      <point x="87" y="513" type="curve"/>
      <point x="27" y="513" type="line"/>
      <point x="36" y="532"/>
      <point x="54" y="577"/>
      <point x="54" y="619" type="curve" smooth="yes"/>
      <point x="54" y="730" type="line"/>
      <point x="159" y="730" type="line"/>
    </contour>
  </outline>
</glyph>
<glyph name="quotedblbase" format="1">
  <advance width="341"/>
  <unicode hex="201E"/>
  <outline>
    <contour>
      <point x="301" y="46" type="line" smooth="yes"/>
      <point x="301" y="-18"/>
      <point x="251" y="-83"/>
      <point x="229" y="-107" type="curve"/>
      <point x="169" y="-107" type="line"/>
      <point x="178" y="-88"/>
      <point x="196" y="-43"/>
      <point x="196" y="-1" type="curve" smooth="yes"/>
      <point x="196" y="110" type="line"/>
      <point x="301" y="110" type="line"/>
    </contour>
    <contour>
      <point x="155" y="46" type="line" smooth="yes"/>
      <point x="155" y="-18"/>
      <point x="105" y="-83"/>
      <point x="83" y="-107" type="curve"/>
      <point x="23" y="-107" type="line"/>
      <point x="32" y="-88"/>
      <point x="50" y="-43"/>
      <point x="50" y="-1" type="curve" smooth="yes"/>
      <point x="50" y="110" type="line"/>
      <point x="155" y="110" type="line"/>
    </contour>
  </outline>
</glyph>
<glyph name="daggerdbl" format="1">
  <advance width="565"/>
  <unicode hex="2021"/>
  <outline>
    <contour>
      <point x="540" y="94" type="line"/>
      <point x="330" y="94" type="line"/>
      <point x="330" y="-179" type="line"/>
      <point x="235" y="-179" type="line"/>
      <point x="235" y="94" type="line"/>
      <point x="25" y="94" type="line"/>
      <point x="25" y="182" type="line"/>
      <point x="235" y="182" type="line"/>
      <point x="235" y="382" type="line"/>
      <point x="25" y="382" type="line"/>
      <point x="25" y="470" type="line"/>
      <point x="235" y="470" type="line"/>
      <point x="235" y="730" type="line"/>
      <point x="330" y="730" type="line"/>
      <point x="330" y="470" type="line"/>
      <point x="540" y="470" type="line"/>
      <point x="540" y="382" type="line"/>
      <point x="330" y="382" type="line"/>
      <point x="330" y="182" type="line"/>
      <point x="540" y="182" type="line"/>
    </contour>
  </outline>
</glyph>
<glyph name="ellipsis" format="1">
  <advance width="576"/>
  <unicode hex="2026"/>
  <outline>
    <contour>
      <point x="531" y="0" type="line"/>
      <point x="427" y="0" type="line"/>
      <point x="427" y="110" type="line"/>
      <point x="531" y="110" type="line"/>
    </contour>
    <contour>
      <point x="340" y="0" type="line"/>
      <point x="236" y="0" type="line"/>
      <point x="236" y="110" type="line"/>
      <point x="340" y="110" type="line"/>
    </contour>
    <contour>
      <point x="149" y="0" type="line"/>
      <point x="45" y="0" type="line"/>
      <point x="45" y="110" type="line"/>
      <point x="149" y="110" type="line"/>
    </contour>
  </outline>
</glyph>
<glyph name="perthousand" format="1">
  <advance width="1050"/>
  <unicode hex="2030"/>
  <outline>
    <contour>
      <point x="334" y="556" type="curve" smooth="yes"/>
      <point x="334" y="448"/>
      <point x="279" y="365"/>
      <point x="190" y="365" type="curve" smooth="yes"/>
      <point x="119" y="365"/>
      <point x="50" y="427"/>
      <point x="50" y="553" type="curve" smooth="yes"/>
      <point x="50" y="660"/>
      <point x="105" y="742"/>
      <point x="193" y="742" type="curve" smooth="yes"/>
      <point x="284" y="742"/>
      <point x="334" y="657"/>
    </contour>
    <contour>
      <point x="665" y="730" type="line"/>
      <point x="166" y="0" type="line"/>
      <point x="65" y="0" type="line"/>
      <point x="564" y="730" type="line"/>
    </contour>
    <contour>
      <point x="1010" y="179" type="curve" smooth="yes"/>
      <point x="1010" y="71"/>
      <point x="955" y="-12"/>
      <point x="866" y="-12" type="curve" smooth="yes"/>
      <point x="795" y="-12"/>
      <point x="726" y="50"/>
      <point x="726" y="176" type="curve" smooth="yes"/>
      <point x="726" y="283"/>
      <point x="781" y="365"/>
      <point x="869" y="365" type="curve" smooth="yes"/>
      <point x="960" y="365"/>
      <point x="1010" y="280"/>
    </contour>
    <contour>
      <point x="690" y="179" type="curve" smooth="yes"/>
      <point x="690" y="71"/>
      <point x="635" y="-12"/>
      <point x="546" y="-12" type="curve" smooth="yes"/>
      <point x="475" y="-12"/>
      <point x="406" y="50"/>
      <point x="406" y="176" type="curve" smooth="yes"/>
      <point x="406" y="283"/>
      <point x="461" y="365"/>
      <point x="549" y="365" type="curve" smooth="yes"/>
      <point x="640" y="365"/>
      <point x="690" y="280"/>
    </contour>
    <contour>
      <point x="250" y="553" type="curve" smooth="yes"/>
      <point x="250" y="605"/>
      <point x="233" y="669"/>
      <point x="192" y="669" type="curve" smooth="yes"/>
      <point x="151" y="669"/>
      <point x="133" y="608"/>
      <point x="133" y="553" type="curve" smooth="yes"/>
      <point x="133" y="499"/>
      <point x="149" y="438"/>
      <point x="190" y="438" type="curve" smooth="yes"/>
      <point x="234" y="438"/>
      <point x="250" y="500"/>
    </contour>
    <contour>
      <point x="926" y="176" type="curve" smooth="yes"/>
      <point x="926" y="228"/>
      <point x="909" y="292"/>
      <point x="868" y="292" type="curve" smooth="yes"/>
      <point x="827" y="292"/>
      <point x="809" y="231"/>
      <point x="809" y="176" type="curve" smooth="yes"/>
      <point x="809" y="122"/>
      <point x="825" y="61"/>
      <point x="866" y="61" type="curve" smooth="yes"/>
      <point x="910" y="61"/>
      <point x="926" y="123"/>
    </contour>
    <contour>
      <point x="606" y="176" type="curve" smooth="yes"/>
      <point x="606" y="228"/>
      <point x="589" y="292"/>
      <point x="548" y="292" type="curve" smooth="yes"/>
      <point x="507" y="292"/>
      <point x="489" y="231"/>
      <point x="489" y="176" type="curve" smooth="yes"/>
      <point x="489" y="122"/>
      <point x="505" y="61"/>
      <point x="546" y="61" type="curve" smooth="yes"/>
      <point x="590" y="61"/>
      <point x="606" y="123"/>
    </contour>
  </outline>
</glyph>
<glyph name="guilsinglleft" format="1">
  <advance width="214"/>
  <unicode hex="2039"/>
  <outline>
    <contour>
      <point x="172" y="42" type="line"/>
      <point x="31" y="167" type="line"/>
      <point x="31" y="242" type="line"/>
      <point x="172" y="365" type="line"/>
      <point x="172" y="265" type="line"/>
      <point x="101" y="205" type="line"/>
      <point x="172" y="144" type="line"/>
    </contour>
  </outline>
</glyph>
<glyph name="guilsinglright" format="1">
  <advance width="214"/>
  <unicode hex="203A"/>
  <outline>
    <contour>
      <point x="184" y="167" type="line"/>
      <point x="42" y="42" type="line"/>
      <point x="42" y="144" type="line"/>
      <point x="113" y="205" type="line"/>
      <point x="42" y="265" type="line"/>
      <point x="42" y="365" type="line"/>
      <point x="184" y="242" type="line"/>
    </contour>
  </outline>
</glyph>
<glyph name="fraction" format="1">
  <advance width="382"/>
  <unicode hex="2044"/>
  <outline>
    <contour>
      <point x="450" y="730" type="line"/>
      <point x="27" y="0" type="line"/>
      <point x="-68" y="0" type="line"/>
      <point x="355" y="730" type="line"/>
    </contour>
  </outline>
</glyph>
<glyph name="Euro" format="1">
  <advance width="608"/>
  <unicode hex="20AC"/>
  <outline>
    <contour>
      <point x="209" y="295" type="line"/>
      <point x="222" y="183"/>
      <point x="270" y="82"/>
      <point x="359" y="82" type="curve" smooth="yes"/>
      <point x="428" y="82"/>
      <point x="468" y="125"/>
      <point x="497" y="187" type="curve"/>
      <point x="587" y="145" type="line"/>
      <point x="541" y="42"/>
      <point x="468" y="-12"/>
      <point x="359" y="-12" type="curve" smooth="yes"/>
      <point x="230" y="-12"/>
      <point x="123" y="89"/>
      <point x="104" y="295" type="curve"/>
      <point x="19" y="295" type="line"/>
      <point x="19" y="343" type="line"/>
      <point x="101" y="343" type="line"/>
      <point x="100" y="357"/>
      <point x="100" y="369"/>
      <point x="101" y="383" type="curve"/>
      <point x="19" y="383" type="line"/>
      <point x="19" y="430" type="line"/>
      <point x="104" y="430" type="line"/>
      <point x="121" y="610"/>
      <point x="207" y="742"/>
      <point x="363" y="742" type="curve" smooth="yes"/>
      <point x="472" y="742"/>
      <point x="544" y="689"/>
      <point x="587" y="591" type="curve"/>
      <point x="500" y="547" type="line"/>
      <point x="471" y="605"/>
      <point x="433" y="649"/>
      <point x="362" y="649" type="curve" smooth="yes"/>
      <point x="265" y="649"/>
      <point x="220" y="544"/>
      <point x="208" y="430" type="curve"/>
      <point x="425" y="430" type="line"/>
      <point x="425" y="383" type="line"/>
      <point x="205" y="383" type="line"/>
      <point x="204" y="370"/>
      <point x="204" y="356"/>
      <point x="205" y="343" type="curve"/>
      <point x="425" y="343" type="line"/>
      <point x="425" y="295" type="line"/>
    </contour>
  </outline>
</glyph>
<glyph name="uni2117" format="1">
  <advance width="844"/>
  <unicode hex="2117"/>
  <outline>
    <contour>
      <point x="799" y="365" type="curve" smooth="yes"/>
      <point x="799" y="157"/>
      <point x="630" y="-12"/>
      <point x="422" y="-12" type="curve" smooth="yes"/>
      <point x="214" y="-12"/>
      <point x="45" y="157"/>
      <point x="45" y="365" type="curve" smooth="yes"/>
      <point x="45" y="573"/>
      <point x="214" y="742"/>
      <point x="422" y="742" type="curve" smooth="yes"/>
      <point x="630" y="742"/>
      <point x="799" y="573"/>
    </contour>
    <contour>
      <point x="745" y="364" type="curve" smooth="yes"/>
      <point x="745" y="542"/>
      <point x="600" y="687"/>
      <point x="422" y="687" type="curve" smooth="yes"/>
      <point x="244" y="687"/>
      <point x="99" y="542"/>
      <point x="99" y="364" type="curve" smooth="yes"/>
      <point x="99" y="186"/>
      <point x="244" y="42"/>
      <point x="422" y="42" type="curve" smooth="yes"/>
      <point x="600" y="42"/>
      <point x="745" y="186"/>
    </contour>
    <contour>
      <point x="586" y="449" type="curve" smooth="yes"/>
      <point x="586" y="373"/>
      <point x="525" y="313"/>
      <point x="454" y="313" type="curve" smooth="yes"/>
      <point x="371" y="313" type="line"/>
      <point x="371" y="146" type="line"/>
      <point x="306" y="146" type="line"/>
      <point x="306" y="584" type="line"/>
      <point x="443" y="584" type="line" smooth="yes"/>
      <point x="531" y="584"/>
      <point x="586" y="525"/>
    </contour>
    <contour>
      <point x="519" y="453" type="curve" smooth="yes"/>
      <point x="519" y="495"/>
      <point x="489" y="523"/>
      <point x="434" y="523" type="curve" smooth="yes"/>
      <point x="371" y="523" type="line"/>
      <point x="371" y="375" type="line"/>
      <point x="437" y="375" type="line" smooth="yes"/>
      <point x="492" y="375"/>
      <point x="519" y="403"/>
    </contour>
  </outline>
</glyph>
<glyph name="minus" format="1">
  <advance width="555"/>
  <unicode hex="2212"/>
  <outline>
    <contour>
      <point x="37" y="262" type="line"/>
      <point x="37" y="364" type="line"/>
      <point x="518" y="364" type="line"/>
      <point x="518" y="262" type="line"/>
    </contour>
  </outline>
</glyph>
<glyph name="radical" format="1">
  <advance width="510"/>
  <unicode hex="221A"/>
  <outline>
    <contour>
      <point x="485" y="730" type="line"/>
      <point x="248" y="0" type="line"/>
      <point x="186" y="0" type="line"/>
      <point x="20" y="316" type="line"/>
      <point x="126" y="316" type="line"/>
      <point x="209" y="146" type="line"/>
      <point x="385" y="730" type="line"/>
    </contour>
  </outline>
</glyph>
<glyph name="apple" format="1">
  <advance width="730"/>
  <unicode hex="F8FF"/>
  <outline>
    <contour>
      <point x="448" y="648" type="line"/>
      <point x="282" y="648" type="line"/>
      <point x="282" y="730" type="line"/>
      <point x="448" y="730" type="line"/>
    </contour>
    <contour>
      <point x="730" y="282" type="line"/>
      <point x="648" y="282" type="line"/>
      <point x="648" y="448" type="line"/>
      <point x="730" y="448" type="line"/>
    </contour>
    <contour>
      <point x="448" y="282" type="line"/>
      <point x="282" y="282" type="line"/>
      <point x="282" y="448" type="line"/>
      <point x="448" y="448" type="line"/>
    </contour>
    <contour>
      <point x="82" y="282" type="line"/>
      <point x="0" y="282" type="line"/>
      <point x="0" y="448" type="line"/>
      <point x="82" y="448" type="line"/>
    </contour>
    <contour>
      <point x="448" y="0" type="line"/>
      <point x="282" y="0" type="line"/>
      <point x="282" y="82" type="line"/>
      <point x="448" y="82" type="line"/>
    </contour>
  </outline>
</glyph>
<glyph name="f_f_l" format="1">
  <advance width="724"/>
  <unicode hex="FB04"/>
  <outline>
    <contour>
      <point x="485" y="328" type="line"/>
      <point x="420" y="328" type="line"/>
      <point x="420" y="0" type="line"/>
      <point x="325" y="0" type="line"/>
      <point x="325" y="328" type="line"/>
      <point x="265" y="328" type="line"/>
      <point x="265" y="416" type="line"/>
      <point x="325" y="416" type="line"/>
      <point x="325" y="637" type="line" smooth="yes"/>
      <point x="325" y="701"/>
      <point x="380" y="733"/>
      <point x="432" y="733" type="curve" smooth="yes"/>
      <point x="451" y="733"/>
      <point x="463" y="733"/>
      <point x="482" y="729" type="curve"/>
      <point x="482" y="646" type="line"/>
      <point x="482" y="646"/>
      <point x="466" y="650"/>
      <point x="454" y="648" type="curve" smooth="yes"/>
      <point x="434" y="645"/>
      <point x="420" y="634"/>
      <point x="420" y="602" type="curve" smooth="yes"/>
      <point x="420" y="416" type="line"/>
      <point x="485" y="416" type="line"/>
    </contour>
    <contour>
      <point x="239" y="328" type="line"/>
      <point x="174" y="328" type="line"/>
      <point x="174" y="0" type="line"/>
      <point x="79" y="0" type="line"/>
      <point x="79" y="328" type="line"/>
      <point x="19" y="328" type="line"/>
      <point x="19" y="416" type="line"/>
      <point x="79" y="416" type="line"/>
      <point x="79" y="637" type="line" smooth="yes"/>
      <point x="79" y="701"/>
      <point x="134" y="733"/>
      <point x="186" y="733" type="curve" smooth="yes"/>
      <point x="205" y="733"/>
      <point x="217" y="733"/>
      <point x="236" y="729" type="curve"/>
      <point x="236" y="646" type="line"/>
      <point x="236" y="646"/>
      <point x="220" y="650"/>
      <point x="208" y="648" type="curve" smooth="yes"/>
      <point x="188" y="645"/>
      <point x="174" y="634"/>
      <point x="174" y="602" type="curve" smooth="yes"/>
      <point x="174" y="416" type="line"/>
      <point x="239" y="416" type="line"/>
    </contour>
    <contour>
      <point x="664" y="0" type="line"/>
      <point x="569" y="0" type="line"/>
      <point x="569" y="730" type="line"/>
      <point x="664" y="730" type="line"/>
    </contour>
  </outline>
</glyph>
<glyph name="bullet" format="1">
  <advance width="382"/>
  <outline>
    <contour>
      <point x="302" y="379" type="curve" smooth="yes"/>
      <point x="302" y="318"/>
      <point x="252" y="268"/>
      <point x="191" y="268" type="curve" smooth="yes"/>
      <point x="130" y="268"/>
      <point x="80" y="318"/>
      <point x="80" y="379" type="curve" smooth="yes"/>
      <point x="80" y="440"/>
      <point x="130" y="490"/>
      <point x="191" y="490" type="curve" smooth="yes"/>
      <point x="252" y="490"/>
      <point x="302" y="440"/>
    </contour>
  </outline>
</glyph>
<glyph name="f_l" format="1">
  <advance width="478"/>
  <outline>
    <contour>
      <point x="239" y="328" type="line"/>
      <point x="174" y="328" type="line"/>
      <point x="174" y="0" type="line"/>
      <point x="79" y="0" type="line"/>
      <point x="79" y="328" type="line"/>
      <point x="19" y="328" type="line"/>
      <point x="19" y="416" type="line"/>
      <point x="79" y="416" type="line"/>
      <point x="79" y="637" type="line" smooth="yes"/>
      <point x="79" y="701"/>
      <point x="134" y="733"/>
      <point x="186" y="733" type="curve" smooth="yes"/>
      <point x="205" y="733"/>
      <point x="217" y="733"/>
      <point x="236" y="729" type="curve"/>
      <point x="236" y="646" type="line"/>
      <point x="236" y="646"/>
      <point x="220" y="650"/>
      <point x="208" y="648" type="curve" smooth="yes"/>
      <point x="188" y="645"/>
      <point x="174" y="634"/>
      <point x="174" y="602" type="curve" smooth="yes"/>
      <point x="174" y="416" type="line"/>
      <point x="239" y="416" type="line"/>
    </contour>
    <contour>
      <point x="418" y="0" type="line"/>
      <point x="323" y="0" type="line"/>
      <point x="323" y="730" type="line"/>
      <point x="418" y="730" type="line"/>
    </contour>
  </outline>
</glyph>
<glyph name="macron" format="1">
  <advance width="500"/>
  <outline>
    <contour>
      <point x="400" y="493" type="line"/>
      <point x="100" y="493" type="line"/>
      <point x="100" y="559" type="line"/>
      <point x="400" y="559" type="line"/>
    </contour>
  </outline>
</glyph>
<glyph name="onesuperior" format="1">
  <advance width="318"/>
  <outline>
    <contour>
      <point x="130" y="307" type="line"/>
      <point x="130" y="607" type="line"/>
      <point x="120" y="594"/>
      <point x="84" y="581"/>
      <point x="56" y="577" type="curve"/>
      <point x="56" y="664" type="line"/>
      <point x="103" y="671"/>
      <point x="129" y="690"/>
      <point x="152" y="729" type="curve"/>
      <point x="212" y="729" type="line"/>
      <point x="212" y="307" type="line"/>
    </contour>
  </outline>
</glyph>
<glyph name="registered" format="1">
  <advance width="844"/>
  <outline>
    <contour>
      <point x="799" y="365" type="curve" smooth="yes"/>
      <point x="799" y="157"/>
      <point x="630" y="-12"/>
      <point x="422" y="-12" type="curve" smooth="yes"/>
      <point x="214" y="-12"/>
      <point x="45" y="157"/>
      <point x="45" y="365" type="curve" smooth="yes"/>
      <point x="45" y="573"/>
      <point x="214" y="742"/>
      <point x="422" y="742" type="curve" smooth="yes"/>
      <point x="630" y="742"/>
      <point x="799" y="573"/>
    </contour>
    <contour>
      <point x="745" y="364" type="curve" smooth="yes"/>
      <point x="745" y="542"/>
      <point x="600" y="687"/>
      <point x="422" y="687" type="curve" smooth="yes"/>
      <point x="244" y="687"/>
      <point x="99" y="542"/>
      <point x="99" y="364" type="curve" smooth="yes"/>
      <point x="99" y="186"/>
      <point x="244" y="42"/>
      <point x="422" y="42" type="curve" smooth="yes"/>
      <point x="600" y="42"/>
      <point x="745" y="186"/>
    </contour>
    <contour>
      <point x="609" y="155" type="line"/>
      <point x="527" y="155" type="line"/>
      <point x="355" y="355" type="line"/>
      <point x="355" y="155" type="line"/>
      <point x="290" y="155" type="line"/>
      <point x="290" y="593" type="line"/>
      <point x="437" y="593" type="line" smooth="yes"/>
      <point x="518" y="593"/>
      <point x="572" y="535"/>
      <point x="572" y="464" type="curve" smooth="yes"/>
      <point x="572" y="394"/>
      <point x="513" y="339"/>
      <point x="448" y="339" type="curve"/>
    </contour>
    <contour>
      <point x="505" y="466" type="curve" smooth="yes"/>
      <point x="505" y="496"/>
      <point x="476" y="532"/>
      <point x="433" y="532" type="curve" smooth="yes"/>
      <point x="355" y="532" type="line"/>
      <point x="355" y="390" type="line"/>
      <point x="425" y="390" type="line" smooth="yes"/>
      <point x="472" y="390"/>
      <point x="505" y="418"/>
    </contour>
  </outline>
</glyph>
<glyph name="threesuperior" format="1">
  <advance width="439"/>
  <outline>
    <contour>
      <point x="375" y="447" type="curve" smooth="yes"/>
      <point x="375" y="395"/>
      <point x="344" y="303"/>
      <point x="210" y="303" type="curve" smooth="yes"/>
      <point x="124" y="303"/>
      <point x="86" y="330"/>
      <point x="60" y="350" type="curve"/>
      <point x="108" y="409" type="line"/>
      <point x="133" y="391"/>
      <point x="169" y="378"/>
      <point x="209" y="378" type="curve" smooth="yes"/>
      <point x="269" y="378"/>
      <point x="295" y="411"/>
      <point x="295" y="439" type="curve" smooth="yes"/>
      <point x="295" y="479"/>
      <point x="255" y="493"/>
      <point x="218" y="493" type="curve" smooth="yes"/>
      <point x="172" y="493" type="line"/>
      <point x="172" y="563" type="line"/>
      <point x="218" y="563" type="line" smooth="yes"/>
      <point x="254" y="563"/>
      <point x="284" y="581"/>
      <point x="284" y="616" type="curve" smooth="yes"/>
      <point x="284" y="632"/>
      <point x="271" y="665"/>
      <point x="218" y="665" type="curve" smooth="yes"/>
      <point x="175" y="665"/>
      <point x="143" y="638"/>
      <point x="130" y="616" type="curve"/>
      <point x="69" y="654" type="line"/>
      <point x="83" y="688"/>
      <point x="137" y="740"/>
      <point x="218" y="740" type="curve" smooth="yes"/>
      <point x="336" y="740"/>
      <point x="363" y="665"/>
      <point x="363" y="611" type="curve" smooth="yes"/>
      <point x="363" y="574"/>
      <point x="339" y="548"/>
      <point x="313" y="537" type="curve"/>
      <point x="344" y="528"/>
      <point x="375" y="493"/>
    </contour>
  </outline>
</glyph>
